# 3ds Max Wavefront OBJ Exporter v0.99 - (c)2007 guruware
# File Created: 10.11.2024 05:37:20

#
# object sd
#

v  1.0000 2.1696 -0.0500
v  0.0000 2.1696 -0.0500
v  0.0000 2.0701 -0.0271
v  0.5434 2.0701 -0.0271
v  1.0000 2.6000 -0.0500
v  0.0000 2.6000 -0.0500
v  0.0000 2.3820 0.0002
v  1.0000 2.3820 0.0002
v  1.0000 2.3721 -0.0068
v  0.0000 2.3721 -0.0068
v  0.0000 2.3658 -0.0410
v  1.0000 2.3658 -0.0410
v  1.0000 2.3865 -0.0500
v  0.0000 2.3865 -0.0500
v  0.0000 2.1685 0.0002
v  1.0000 2.1685 0.0002
v  1.0000 2.1586 -0.0068
v  0.0000 2.1586 -0.0068
v  0.0000 2.1523 -0.0410
v  1.0000 2.1523 -0.0410
v  1.0000 2.0701 -0.0271
# 21 vertices

vn 0.0000 -0.2241 0.9746
vn 0.0000 0.2245 0.9745
vn 0.0000 0.2244 0.9745
vn 0.0000 -0.1933 0.9811
vn 0.0000 -0.8426 0.5386
vn 0.0000 -0.9835 0.1812
# 6 vertex normals

vt 0.0020 0.9139 0.0000
vt 0.9980 0.9139 0.0000
vt 0.9980 0.8911 0.0000
vt 0.4568 0.8911 0.0000
vt 0.0020 0.9980 0.0000
vt 0.9980 0.9980 0.0000
vt 0.9980 0.9481 0.0000
vt 0.0020 0.9481 0.0000
vt 0.0021 0.9380 0.0000
vt 0.9980 0.9380 0.0000
vt 0.9980 0.9279 0.0000
vt 0.0020 0.9279 0.0000
vt 0.0020 0.8297 0.0000
vt 0.9980 0.8297 0.0000
vt 0.9980 0.7798 0.0000
vt 0.0020 0.7798 0.0000
vt 0.0021 0.7696 0.0000
vt 0.9980 0.7696 0.0000
vt 0.9980 0.7595 0.0000
vt 0.0020 0.7595 0.0000
vt 0.0020 0.8911 0.0000
# 21 texture coords

o sd
g sd
s 1
f 1/1/1 2/2/1 3/3/2 4/4/2 
f 5/5/3 6/6/3 7/7/4 
f 7/7/4 8/8/4 5/5/3 
f 9/9/5 10/10/5 11/11/6 
f 11/11/6 12/12/6 9/9/5 
f 13/13/3 14/14/3 15/15/4 
f 15/15/4 16/16/4 13/13/3 
f 17/17/5 18/18/5 19/19/6 
f 19/19/6 20/20/6 17/17/5 
f 8/8/4 7/7/4 10/10/5 
f 10/10/5 9/9/5 8/8/4 
f 16/16/4 15/15/4 18/18/5 
f 18/18/5 17/17/5 16/16/4 
f 21/21/2 1/1/1 4/4/2 
# 1 polygons - 13 triangles

