# 3ds Max Wavefront OBJ Exporter v0.99 - (c)2007 guruware
# File Created: 10.11.2024 05:23:07

#
# object sd
#

v  1.0000 2.6000 -0.0500
v  0.0000 2.6000 -0.0500
v  0.0000 2.3820 0.0002
v  1.0000 2.3820 0.0002
v  1.0000 2.3721 -0.0068
v  0.0000 2.3721 -0.0068
v  0.0000 2.3658 -0.0410
v  1.0000 2.3658 -0.0410
v  1.0000 2.3865 -0.0500
v  0.0000 2.3865 -0.0500
v  0.0000 2.1685 0.0002
v  1.0000 2.1685 0.0002
v  1.0000 2.1586 -0.0068
v  0.0000 2.1586 -0.0068
v  0.0000 2.1523 -0.0410
v  1.0000 2.1523 -0.0410
v  0.0000 0.6582 -0.0500
v  1.0000 0.4403 0.0002
v  1.0000 0.6582 -0.0500
v  0.0000 0.4403 0.0002
v  1.0000 0.4303 -0.0068
v  0.0000 0.4303 -0.0068
v  0.0000 0.4239 -0.0410
v  1.0000 0.4239 -0.0410
v  1.0000 0.8751 -0.0500
v  0.0000 0.8751 -0.0500
v  0.0000 0.6571 0.0002
v  1.0000 0.6571 0.0002
v  1.0000 0.6472 -0.0068
v  0.0000 0.6472 -0.0068
v  0.0000 0.6409 -0.0410
v  1.0000 0.6409 -0.0410
v  1.0000 0.0163 -0.0088
v  1.0000 0.2278 -0.0500
v  0.0000 0.2278 -0.0500
v  0.0000 0.0163 -0.0088
v  0.0000 0.0064 -0.0158
v  1.0000 0.0000 -0.0500
v  1.0000 0.0064 -0.0158
v  0.0000 0.0000 -0.0500
v  0.0000 0.4447 -0.0500
v  1.0000 0.2267 0.0002
v  1.0000 0.4447 -0.0500
v  0.0000 0.2267 0.0002
v  1.0000 0.2168 -0.0068
v  0.0000 0.2168 -0.0068
v  0.0000 0.2104 -0.0410
v  1.0000 0.2104 -0.0410
# 48 vertices

vn 0.0000 0.2244 0.9745
vn 0.0000 -0.1933 0.9811
vn 0.0000 -0.8426 0.5386
vn 0.0000 -0.9835 0.1812
vn 0.0000 0.2245 0.9745
vn 0.0000 -0.1910 0.9816
vn 0.0000 -0.8405 0.5418
vn 0.0000 -0.9829 0.1839
vn 0.0000 -0.2100 0.9777
vn 0.0000 0.1912 0.9816
vn 0.0000 -0.8418 0.5398
# 11 vertex normals

vt 0.0020 0.9980 0.0000
vt 0.9980 0.9980 0.0000
vt 0.9980 0.9481 0.0000
vt 0.0020 0.9481 0.0000
vt 0.0021 0.9380 0.0000
vt 0.9980 0.9380 0.0000
vt 0.9980 0.9279 0.0000
vt 0.0020 0.9279 0.0000
vt 0.0020 0.8297 0.0000
vt 0.9980 0.8297 0.0000
vt 0.9980 0.7798 0.0000
vt 0.0020 0.7798 0.0000
vt 0.0021 0.7696 0.0000
vt 0.9980 0.7696 0.0000
vt 0.9980 0.7595 0.0000
vt 0.0020 0.7595 0.0000
vt 0.9980 0.4088 0.0000
vt 0.0020 0.3589 0.0000
vt 0.0020 0.4088 0.0000
vt 0.9980 0.3589 0.0000
vt 0.0021 0.3488 0.0000
vt 0.9980 0.3488 0.0000
vt 0.9980 0.3386 0.0000
vt 0.0020 0.3386 0.0000
vt 0.0020 0.2405 0.0000
vt 0.9980 0.2405 0.0000
vt 0.9980 0.1906 0.0000
vt 0.0020 0.1906 0.0000
vt 0.0021 0.1804 0.0000
vt 0.9980 0.1804 0.0000
vt 0.9980 0.1703 0.0000
vt 0.0020 0.1703 0.0000
vt 0.0020 0.0222 0.0000
vt 0.0020 0.0721 0.0000
vt 0.9980 0.0721 0.0000
vt 0.9980 0.0222 0.0000
vt 0.9980 0.0121 0.0000
vt 0.0020 0.0020 0.0000
vt 0.0021 0.0121 0.0000
vt 0.9980 0.0020 0.0000
vt 0.9980 0.3247 0.0000
vt 0.0020 0.2747 0.0000
vt 0.0020 0.3247 0.0000
vt 0.9980 0.2747 0.0000
vt 0.0021 0.2646 0.0000
vt 0.9980 0.2646 0.0000
vt 0.9980 0.2545 0.0000
vt 0.0020 0.2545 0.0000
# 48 texture coords

o sd
g sd
s 1
f 1/1/1 2/2/1 3/3/2 
f 3/3/2 4/4/2 1/1/1 
f 5/5/3 6/6/3 7/7/4 
f 7/7/4 8/8/4 5/5/3 
f 9/9/1 10/10/1 11/11/2 
f 11/11/2 12/12/2 9/9/1 
f 13/13/3 14/14/3 15/15/4 
f 15/15/4 16/16/4 13/13/3 
f 17/17/5 18/18/6 19/19/5 
f 17/17/5 20/20/6 18/18/6 
f 21/21/7 22/22/7 23/23/8 
f 23/23/8 24/24/8 21/21/7 
f 25/25/1 26/26/1 27/27/2 
f 27/27/2 28/28/2 25/25/1 
f 29/29/3 30/30/3 31/31/4 
f 31/31/4 32/32/4 29/29/3 
f 33/33/9 34/34/10 35/35/10 
f 35/35/10 36/36/9 33/33/9 
f 37/37/11 38/38/8 39/39/11 
f 37/37/11 40/40/8 38/38/8 
f 41/41/1 42/42/2 43/43/1 
f 41/41/1 44/44/2 42/42/2 
f 45/45/11 46/46/11 47/47/8 
f 47/47/8 48/48/8 45/45/11 
f 4/4/2 3/3/2 6/6/3 
f 6/6/3 5/5/3 4/4/2 
f 12/12/2 11/11/2 14/14/3 
f 14/14/3 13/13/3 12/12/2 
f 21/21/7 18/18/6 20/20/6 
f 20/20/6 22/22/7 21/21/7 
f 28/28/2 27/27/2 30/30/3 
f 30/30/3 29/29/3 28/28/2 
f 36/36/9 39/39/11 33/33/9 
f 36/36/9 37/37/11 39/39/11 
f 45/45/11 42/42/2 44/44/2 
f 44/44/2 46/46/11 45/45/11 
# 0 polygons - 36 triangles

