# 3ds Max Wavefront OBJ Exporter v0.99 - (c)2007 guruware
# File Created: 10.11.2024 02:54:59

mtllib House_RailingB_ConvexMesh.mtl

#
# object RailingB_ConvexMesh
#

v  6.2168 -0.2056 4.4932
v  6.3867 -0.2056 4.4932
v  6.3867 1.1204 4.4932
v  6.2168 1.1204 4.4932
v  6.2168 -0.2056 -0.9588
v  6.2168 1.1204 -0.9588
v  6.3867 1.1204 -0.9588
v  6.3867 -0.2056 -0.9588
# 8 vertices

vn -0.5774 -0.5774 0.5774
vn 0.5774 -0.5774 0.5774
vn 0.5774 0.5774 0.5774
vn -0.5774 0.5774 0.5774
vn -0.5774 -0.5774 -0.5774
vn -0.5774 0.5774 -0.5774
vn 0.5774 0.5774 -0.5774
vn 0.5774 -0.5774 -0.5774
# 8 vertex normals

vt 1.0000 0.0000 0.0000
vt 0.0000 0.0000 0.0000
vt 0.0000 1.0000 0.0000
vt 1.0000 1.0000 0.0000
# 4 texture coords

o RailingB_ConvexMesh
g RailingB_ConvexMesh
usemtl wire_178222161
s 2
f 1/1/1 2/2/2 3/3/3 4/4/4 
s 4
f 5/2/5 6/3/6 7/4/7 8/1/8 
s 8
f 1/2/1 5/3/5 8/4/8 2/1/2 
s 16
f 2/2/2 8/3/8 7/4/7 3/1/3 
s 32
f 3/2/3 7/3/7 6/4/6 4/1/4 
s 64
f 4/2/4 6/3/6 5/4/5 1/1/1 
# 6 polygons

