# 3ds Max Wavefront OBJ Exporter v0.97b - (c)2007 guruware
# File Created: 16.02.2024 01:11:21

#
# object separat_5
#

v  0.0225 0.5674 -0.0780
v  0.0424 0.5674 -0.0731
v  0.0481 0.5208 -0.0830
v  0.0250 0.5208 -0.0858
v  0.0202 0.6112 -0.0749
v  0.0390 0.6028 -0.0673
v  0.0713 0.4342 -0.1230
v  0.0838 0.4040 -0.1446
v  0.0422 0.3900 -0.1457
v  0.0360 0.4266 -0.1237
v  -0.0575 0.4767 -0.1003
v  -0.0707 0.4342 -0.1231
v  -0.0419 0.5674 -0.0732
v  -0.0476 0.5208 -0.0831
v  -0.0245 0.5206 -0.0859
v  -0.0220 0.5674 -0.0781
v  0.0003 0.5205 -0.0866
v  0.0002 0.5674 -0.0795
v  -0.0384 0.6027 -0.0674
v  0.0003 0.4256 -0.1241
v  0.0004 0.3865 -0.1459
v  -0.0415 0.3900 -0.1458
v  -0.0354 0.4265 -0.1238
v  0.0003 0.6140 -0.0775
v  -0.0831 0.4040 -0.1448
v  0.0581 0.4767 -0.1002
v  -0.0197 0.6111 -0.0749
v  0.0003 0.4730 -0.1020
v  -0.0290 0.4731 -0.1017
v  0.0296 0.4733 -0.1016
v  0.0873 0.3951 -0.1506
v  -0.0866 0.3951 -0.1508
v  -0.0432 0.3807 -0.1507
v  0.0004 0.3763 -0.1507
v  0.0439 0.3807 -0.1506
v  0.0002 0.6141 -0.0761
v  0.0200 0.6112 -0.0735
v  0.0385 0.6028 -0.0661
v  -0.0195 0.6112 -0.0736
v  -0.0380 0.6029 -0.0662
v  0.0016 0.4247 -0.1202
v  0.0012 0.4728 -0.0976
v  -0.0267 0.4731 -0.0972
v  -0.0326 0.4257 -0.1197
v  0.0357 0.4254 -0.1200
v  0.0692 0.4328 -0.1195
v  0.0560 0.4743 -0.0962
v  0.0290 0.4728 -0.0975
v  0.0216 0.5652 -0.0716
v  0.0241 0.5179 -0.0811
v  0.0460 0.5175 -0.0787
v  0.0404 0.5649 -0.0671
v  -0.0662 0.4333 -0.1187
v  -0.0446 0.5178 -0.0782
v  -0.0536 0.4748 -0.0956
v  -0.0228 0.5178 -0.0809
v  -0.0200 0.5648 -0.0711
v  -0.0388 0.5642 -0.0661
v  0.0007 0.5176 -0.0817
v  0.0008 0.5652 -0.0729
# 60 vertices

vn 0.1520 0.1394 -0.9785
vn 0.2423 0.1686 -0.9554
vn 0.1082 0.2801 -0.9539
vn 0.1082 0.2801 -0.9539
vn 0.0677 0.2620 -0.9627
vn 0.1520 0.1394 -0.9785
vn 0.2062 0.0913 -0.9742
vn 0.3299 0.1289 -0.9352
vn 0.2423 0.1686 -0.9554
vn 0.2423 0.1686 -0.9554
vn 0.1520 0.1394 -0.9785
vn 0.2062 0.0913 -0.9742
vn -0.0856 0.4800 -0.8731
vn -0.1251 0.5179 -0.8462
vn -0.0728 0.5090 -0.8577
vn -0.0728 0.5090 -0.8577
vn -0.0473 0.4716 -0.8805
vn -0.0856 0.4800 -0.8731
vn -0.0661 0.2621 -0.9628
vn -0.1064 0.2810 -0.9538
vn -0.2416 0.1693 -0.9555
vn -0.2416 0.1693 -0.9555
vn -0.1506 0.1399 -0.9786
vn -0.0661 0.2621 -0.9628
vn 0.0010 0.2439 -0.9698
vn -0.0661 0.2621 -0.9628
vn -0.1506 0.1399 -0.9786
vn -0.1506 0.1399 -0.9786
vn 0.0010 0.1127 -0.9936
vn 0.0010 0.2439 -0.9698
vn 0.0008 0.4634 -0.8861
vn 0.0009 0.4994 -0.8664
vn 0.0747 0.5093 -0.8574
vn 0.0747 0.5093 -0.8574
vn 0.0493 0.4719 -0.8803
vn 0.0008 0.4634 -0.8861
vn -0.0473 0.4716 -0.8805
vn -0.0728 0.5090 -0.8577
vn 0.0009 0.4994 -0.8664
vn 0.0009 0.4994 -0.8664
vn 0.0008 0.4634 -0.8861
vn -0.0473 0.4716 -0.8805
vn 0.0493 0.4719 -0.8803
vn 0.0747 0.5093 -0.8574
vn 0.1273 0.5182 -0.8457
vn 0.1273 0.5182 -0.8457
vn 0.0879 0.4804 -0.8726
vn 0.0493 0.4719 -0.8803
vn 0.0007 0.3761 -0.9266
vn -0.0014 0.3882 -0.9216
vn -0.0661 0.2621 -0.9628
vn -0.0661 0.2621 -0.9628
vn 0.0010 0.2439 -0.9698
vn 0.0007 0.3761 -0.9266
vn 0.0032 0.3880 -0.9217
vn 0.0007 0.3761 -0.9266
vn 0.0010 0.2439 -0.9698
vn 0.0010 0.2439 -0.9698
vn 0.0677 0.2620 -0.9627
vn 0.0032 0.3880 -0.9217
vn 0.0677 0.2620 -0.9627
vn 0.0010 0.2439 -0.9698
vn 0.0010 0.1127 -0.9936
vn 0.0010 0.1127 -0.9936
vn 0.1520 0.1394 -0.9785
vn 0.0677 0.2620 -0.9627
vn -0.0014 0.3882 -0.9216
vn 0.0049 0.4006 -0.9162
vn -0.1064 0.2810 -0.9538
vn -0.1064 0.2810 -0.9538
vn -0.0661 0.2621 -0.9628
vn -0.0014 0.3882 -0.9216
vn 0.0008 0.0589 -0.9983
vn 0.2062 0.0913 -0.9742
vn 0.1520 0.1394 -0.9785
vn 0.1520 0.1394 -0.9785
vn 0.0010 0.1127 -0.9936
vn 0.0008 0.0589 -0.9983
vn -0.2050 0.0919 -0.9744
vn 0.0008 0.0589 -0.9983
vn 0.0010 0.1127 -0.9936
vn 0.0010 0.1127 -0.9936
vn -0.1506 0.1399 -0.9786
vn -0.2050 0.0919 -0.9744
vn -0.3292 0.1298 -0.9353
vn -0.2050 0.0919 -0.9744
vn -0.1506 0.1399 -0.9786
vn -0.1506 0.1399 -0.9786
vn -0.2416 0.1693 -0.9555
vn -0.3292 0.1298 -0.9353
vn 0.0677 0.2620 -0.9627
vn 0.1082 0.2801 -0.9539
vn -0.0027 0.4003 -0.9164
vn -0.0027 0.4003 -0.9164
vn 0.0032 0.3880 -0.9217
vn 0.0677 0.2620 -0.9627
vn 0.0493 0.4719 -0.8803
vn -0.0014 0.3882 -0.9216
vn 0.0007 0.3761 -0.9266
vn 0.0007 0.3761 -0.9266
vn 0.0008 0.4634 -0.8861
vn 0.0493 0.4719 -0.8803
vn 0.0008 0.4634 -0.8861
vn 0.0007 0.3761 -0.9266
vn 0.0032 0.3880 -0.9217
vn 0.0032 0.3880 -0.9217
vn -0.0473 0.4716 -0.8805
vn 0.0008 0.4634 -0.8861
vn 0.0879 0.4804 -0.8726
vn 0.0049 0.4006 -0.9162
vn -0.0014 0.3882 -0.9216
vn -0.0014 0.3882 -0.9216
vn 0.0493 0.4719 -0.8803
vn 0.0879 0.4804 -0.8726
vn 0.0032 0.3880 -0.9217
vn -0.0027 0.4003 -0.9164
vn -0.0856 0.4800 -0.8731
vn -0.0856 0.4800 -0.8731
vn -0.0473 0.4716 -0.8805
vn 0.0032 0.3880 -0.9217
vn 0.0014 -0.4968 0.8679
vn 0.0031 -0.3898 0.9209
vn 0.0098 -0.4026 0.9153
vn 0.0098 -0.4026 0.9153
vn -0.0597 -0.5074 0.8597
vn 0.0014 -0.4968 0.8679
vn 0.0621 -0.5067 0.8599
vn 0.1048 -0.5162 0.8500
vn -0.0036 -0.4154 0.9096
vn -0.0036 -0.4154 0.9096
vn -0.0030 -0.4023 0.9155
vn 0.0621 -0.5067 0.8599
vn 0.0621 -0.5067 0.8599
vn -0.0030 -0.4023 0.9155
vn 0.0031 -0.3898 0.9209
vn 0.0031 -0.3898 0.9209
vn 0.0014 -0.4968 0.8679
vn 0.0621 -0.5067 0.8599
vn -0.1428 -0.1010 0.9846
vn -0.0653 -0.2866 0.9558
vn -0.1093 -0.3045 0.9462
vn -0.1093 -0.3045 0.9462
vn -0.2314 -0.1282 0.9644
vn -0.1428 -0.1010 0.9846
vn -0.0653 -0.2866 0.9558
vn -0.0030 -0.4023 0.9155
vn -0.0036 -0.4154 0.9096
vn -0.0036 -0.4154 0.9096
vn -0.1093 -0.3045 0.9462
vn -0.0653 -0.2866 0.9558
vn -0.0935 -0.5551 0.8265
vn -0.0597 -0.5074 0.8597
vn -0.1024 -0.5170 0.8498
vn -0.1024 -0.5170 0.8498
vn -0.1517 -0.5608 0.8139
vn -0.0935 -0.5551 0.8265
vn 0.1228 -0.3092 0.9430
vn 0.0776 -0.2906 0.9537
vn 0.1566 -0.0968 0.9829
vn 0.1566 -0.0968 0.9829
vn 0.2437 -0.1214 0.9622
vn 0.1228 -0.3092 0.9430
vn 0.0014 -0.4968 0.8679
vn 0.0000 -0.5471 0.8370
vn 0.0926 -0.5546 0.8269
vn 0.0926 -0.5546 0.8269
vn 0.0621 -0.5067 0.8599
vn 0.0014 -0.4968 0.8679
vn -0.0597 -0.5074 0.8597
vn -0.0935 -0.5551 0.8265
vn 0.0000 -0.5471 0.8370
vn 0.0000 -0.5471 0.8370
vn 0.0014 -0.4968 0.8679
vn -0.0597 -0.5074 0.8597
vn 0.0098 -0.4026 0.9153
vn 0.0031 -0.3898 0.9209
vn 0.0061 -0.2712 0.9625
vn 0.0061 -0.2712 0.9625
vn 0.0776 -0.2906 0.9537
vn 0.0098 -0.4026 0.9153
vn 0.0031 -0.3898 0.9209
vn -0.0030 -0.4023 0.9155
vn -0.0653 -0.2866 0.9558
vn -0.0653 -0.2866 0.9558
vn 0.0061 -0.2712 0.9625
vn 0.0031 -0.3898 0.9209
vn 0.0776 -0.2906 0.9537
vn 0.0061 -0.2712 0.9625
vn 0.0074 -0.0753 0.9971
vn 0.0074 -0.0753 0.9971
vn 0.1566 -0.0968 0.9829
vn 0.0776 -0.2906 0.9537
vn 0.0061 -0.2712 0.9625
vn -0.0653 -0.2866 0.9558
vn -0.1428 -0.1010 0.9846
vn -0.1428 -0.1010 0.9846
vn 0.0074 -0.0753 0.9971
vn 0.0061 -0.2712 0.9625
vn 0.1228 -0.3092 0.9430
vn 0.0108 -0.4161 0.9093
vn 0.0098 -0.4026 0.9153
vn 0.0098 -0.4026 0.9153
vn 0.0776 -0.2906 0.9537
vn 0.1228 -0.3092 0.9430
vn 0.1977 0.0429 0.9793
vn 0.1566 -0.0968 0.9829
vn 0.0074 -0.0753 0.9971
vn 0.0074 -0.0753 0.9971
vn 0.0059 0.0557 0.9984
vn 0.1977 0.0429 0.9793
vn 0.0059 0.0557 0.9984
vn 0.0074 -0.0753 0.9971
vn -0.1428 -0.1010 0.9846
vn -0.1428 -0.1010 0.9846
vn -0.1897 0.0267 0.9815
vn 0.0059 0.0557 0.9984
vn -0.1428 -0.1010 0.9846
vn -0.2314 -0.1282 0.9644
vn -0.3062 -0.0032 0.9520
vn -0.3062 -0.0032 0.9520
vn -0.1897 0.0267 0.9815
vn -0.1428 -0.1010 0.9846
vn 0.3096 0.0231 0.9506
vn 0.2437 -0.1214 0.9622
vn 0.1566 -0.0968 0.9829
vn 0.1566 -0.0968 0.9829
vn 0.1977 0.0429 0.9793
vn 0.3096 0.0231 0.9506
vn -0.0597 -0.5074 0.8597
vn 0.0098 -0.4026 0.9153
vn 0.0108 -0.4161 0.9093
vn 0.0108 -0.4161 0.9093
vn -0.1024 -0.5170 0.8498
vn -0.0597 -0.5074 0.8597
vn 0.1523 -0.5610 0.8137
vn 0.1048 -0.5162 0.8500
vn 0.0621 -0.5067 0.8599
vn 0.0621 -0.5067 0.8599
vn 0.0926 -0.5546 0.8269
vn 0.1523 -0.5610 0.8137
# 240 vertex normals

g separat_5
f 1//1 2//2 3//3 
f 3//4 4//5 1//6 
f 5//7 6//8 2//9 
f 2//10 1//11 5//12 
f 7//13 8//14 9//15 
f 9//16 10//17 7//18 
f 15//19 14//20 13//21 
f 13//22 16//23 15//24 
f 17//25 15//26 16//27 
f 16//28 18//29 17//30 
f 20//31 21//32 22//33 
f 22//34 23//35 20//36 
f 10//37 9//38 21//39 
f 21//40 20//41 10//42 
f 23//43 22//44 25//45 
f 25//46 12//47 23//48 
f 28//49 29//50 15//51 
f 15//52 17//53 28//54 
f 30//55 28//56 17//57 
f 17//58 4//59 30//60 
f 4//61 17//62 18//63 
f 18//64 1//65 4//66 
f 29//67 11//68 14//69 
f 14//70 15//71 29//72 
f 24//73 5//74 1//75 
f 1//76 18//77 24//78 
f 27//79 24//80 18//81 
f 18//82 16//83 27//84 
f 19//85 27//86 16//87 
f 16//88 13//89 19//90 
f 4//91 3//92 26//93 
f 26//94 30//95 4//96 
f 23//97 29//98 28//99 
f 28//100 20//101 23//102 
f 20//103 28//104 30//105 
f 30//106 10//107 20//108 
f 12//109 11//110 29//111 
f 29//112 23//113 12//114 
f 30//115 26//116 7//117 
f 7//118 10//119 30//120 
f 41//121 42//122 43//123 
f 43//124 44//125 41//126 
f 45//127 46//128 47//129 
f 47//130 48//131 45//132 
f 45//133 48//134 42//135 
f 42//136 41//137 45//138 
f 49//139 50//140 51//141 
f 51//142 52//143 49//144 
f 50//145 48//146 47//147 
f 47//148 51//149 50//150 
f 33//151 44//152 53//153 
f 53//154 32//155 33//156 
f 54//157 56//158 57//159 
f 57//160 58//161 54//162 
f 41//163 34//164 35//165 
f 35//166 45//167 41//168 
f 44//169 33//170 34//171 
f 34//172 41//173 44//174 
f 43//175 42//176 59//177 
f 59//178 56//179 43//180 
f 42//181 48//182 50//183 
f 50//184 59//185 42//186 
f 56//187 59//188 60//189 
f 60//190 57//191 56//192 
f 59//193 50//194 49//195 
f 49//196 60//197 59//198 
f 54//199 55//200 43//201 
f 43//202 56//203 54//204 
f 39//205 57//206 60//207 
f 60//208 36//209 39//210 
f 36//211 60//212 49//213 
f 49//214 37//215 36//216 
f 49//217 52//218 38//219 
f 38//220 37//221 49//222 
f 40//223 58//224 57//225 
f 57//226 39//227 40//228 
f 44//229 43//230 55//231 
f 55//232 53//233 44//234 
f 31//235 46//236 45//237 
f 45//238 35//239 31//240 
# 80 faces

