# 3ds Max Wavefront OBJ Exporter v0.99 - (c)2007 guruware
# File Created: 10.11.2024 03:10:59

#
# object RailingE
#

v  -8.1000 1.0859 -0.9750
v  -8.1000 1.1168 -0.9750
v  -8.1000 1.1334 -0.9584
v  -8.1000 1.1334 -0.8416
v  -8.1000 1.1168 -0.8250
v  -8.1000 1.0859 -0.8250
v  -8.1000 1.0693 -0.8416
v  -8.1000 1.0693 -0.9584
v  -9.9000 0.1334 -0.9584
v  -9.9000 0.1334 -0.8416
v  -9.9000 0.1168 -0.8250
v  -9.9000 0.0859 -0.8250
v  -9.9000 0.0693 -0.9584
v  -9.9000 0.0693 -0.8416
v  -9.9000 0.1168 -0.9750
v  -9.9000 0.0859 -0.9750
v  -9.9000 -0.9556 -0.9750
v  -9.9000 -0.9051 -0.9750
v  -8.1000 0.0949 -0.9750
v  -8.1000 0.0444 -0.9750
v  -8.1000 0.0949 -0.8250
v  -8.1000 0.1114 -0.8416
v  -9.9000 -0.8886 -0.8416
v  -9.9000 -0.9051 -0.8250
v  -8.1000 0.1114 -0.9584
v  -9.9000 -0.8886 -0.9584
v  -8.1000 0.0278 -0.8416
v  -8.1000 0.0444 -0.8250
v  -9.9000 -0.9556 -0.8250
v  -9.9000 -0.9722 -0.8416
v  -8.1000 0.0278 -0.9584
v  -9.9000 -0.9722 -0.9584
v  -8.1000 -0.1168 -1.0250
v  -8.1000 -0.0515 -1.0250
v  -8.1000 -0.0349 -1.0084
v  -8.1000 -0.0349 -0.7916
v  -8.1000 -0.0515 -0.7750
v  -8.1000 -0.1168 -0.7750
v  -8.1000 -0.1334 -0.7916
v  -8.1000 -0.1334 -1.0084
v  -9.9000 -1.0349 -1.0084
v  -9.9000 -1.0349 -0.7916
v  -9.9000 -1.0515 -0.7750
v  -9.9000 -1.1168 -0.7750
v  -9.9000 -1.1334 -1.0084
v  -9.9000 -1.1334 -0.7916
v  -9.9000 -1.0515 -1.0250
v  -9.9000 -1.1168 -1.0250
v  -9.8597 -1.0043 -0.9091
v  -9.8487 -1.0043 -0.9200
v  -9.8040 -1.0043 -0.9200
v  -9.7930 -1.0043 -0.9091
v  -9.7930 -1.0043 -0.8909
v  -9.8040 -1.0043 -0.8800
v  -9.8487 -1.0043 -0.8800
v  -9.8597 -1.0043 -0.8909
v  -9.4688 -0.8127 -0.9200
v  -9.5130 -0.8127 -0.9200
v  -9.5130 0.3362 -0.9200
v  -9.4688 0.3362 -0.9200
v  -9.1415 -0.6316 -0.9200
v  -9.1857 -0.6316 -0.9200
v  -9.1857 0.5173 -0.9200
v  -9.1415 0.5173 -0.9200
v  -8.8142 -0.4599 -0.9200
v  -8.8584 -0.4599 -0.9200
v  -8.8584 0.6890 -0.9200
v  -8.8142 0.6890 -0.9200
v  -8.4870 -0.2724 -0.9200
v  -8.5312 -0.2724 -0.9200
v  -8.5312 0.8765 -0.9200
v  -8.4870 0.8765 -0.9200
v  -9.1966 0.5173 -0.9091
v  -9.1966 0.5173 -0.8909
v  -9.1857 0.5173 -0.8800
v  -9.1415 0.5173 -0.8800
v  -9.1306 0.5173 -0.8909
v  -9.1306 0.5173 -0.9091
v  -9.5239 -0.8127 -0.9091
v  -9.4579 -0.8127 -0.9091
v  -9.4579 -0.8127 -0.8909
v  -9.4688 -0.8127 -0.8800
v  -9.5130 -0.8127 -0.8800
v  -9.5239 -0.8127 -0.8909
v  -9.1306 -0.6316 -0.8909
v  -9.1306 -0.6316 -0.9091
v  -9.1966 -0.6316 -0.9091
v  -9.1966 -0.6316 -0.8909
v  -8.1959 1.0786 -0.9200
v  -8.2069 1.0786 -0.9091
v  -8.2069 1.0786 -0.8909
v  -8.1959 1.0786 -0.8800
v  -8.1513 1.0786 -0.8800
v  -8.1403 1.0786 -0.8909
v  -8.1403 1.0786 -0.9091
v  -8.1513 1.0786 -0.9200
v  -9.4579 0.3362 -0.9091
v  -9.4579 0.3362 -0.8909
v  -9.1415 -0.6316 -0.8800
v  -9.1857 -0.6316 -0.8800
v  -9.5239 0.3362 -0.8909
v  -9.5239 0.3362 -0.9091
v  -9.5130 0.3362 -0.8800
v  -9.4688 0.3362 -0.8800
v  -8.8693 -0.4599 -0.9091
v  -8.8033 -0.4599 -0.9091
v  -8.8033 -0.4599 -0.8909
v  -8.8142 -0.4599 -0.8800
v  -8.8584 -0.4599 -0.8800
v  -8.8693 -0.4599 -0.8909
v  -9.7930 0.1447 -0.9091
v  -9.7930 0.1447 -0.8909
v  -9.8487 0.1447 -0.9200
v  -9.8040 0.1447 -0.9200
v  -8.1959 -0.0207 -0.8800
v  -8.1513 -0.0207 -0.8800
v  -8.5421 -0.2724 -0.9091
v  -8.4761 -0.2724 -0.9091
v  -8.4761 -0.2724 -0.8909
v  -8.4870 -0.2724 -0.8800
v  -8.5312 -0.2724 -0.8800
v  -8.5421 -0.2724 -0.8909
v  -8.2069 -0.0207 -0.9091
v  -8.2069 -0.0207 -0.8909
v  -9.8597 0.1447 -0.9091
v  -9.8597 0.1447 -0.8909
v  -9.8487 0.1447 -0.8800
v  -9.8040 0.1447 -0.8800
v  -8.1403 -0.0207 -0.8909
v  -8.1403 -0.0207 -0.9091
v  -8.4870 0.8765 -0.8800
v  -8.5312 0.8765 -0.8800
v  -8.8142 0.6890 -0.8800
v  -8.8584 0.6890 -0.8800
v  -8.1513 -0.0207 -0.9200
v  -8.1959 -0.0207 -0.9200
v  -8.8693 0.6890 -0.8909
v  -8.8693 0.6890 -0.9091
v  -8.8033 0.6890 -0.8909
v  -8.8033 0.6890 -0.9091
v  -8.5421 0.8765 -0.8909
v  -8.5421 0.8765 -0.9091
v  -8.4761 0.8765 -0.8909
v  -8.4761 0.8765 -0.9091
v  -9.9000 -1.0283 -0.9750
v  -9.9000 -0.9779 -0.9750
v  -8.1000 0.0221 -0.9750
v  -8.1000 -0.0283 -0.9750
v  -8.1000 0.0221 -0.8250
v  -8.1000 0.0387 -0.8416
v  -9.9000 -0.9613 -0.8416
v  -9.9000 -0.9779 -0.8250
v  -8.1000 0.0387 -0.9584
v  -9.9000 -0.9613 -0.9584
v  -8.1000 -0.0449 -0.8416
v  -8.1000 -0.0283 -0.8250
v  -9.9000 -1.0283 -0.8250
v  -9.9000 -1.0449 -0.8416
v  -8.1000 -0.0449 -0.9584
v  -9.9000 -1.0449 -0.9584
# 160 vertices

vn 1.0000 0.0000 -0.0000
vn -0.4856 0.8742 -0.0000
vn 0.0000 0.0000 1.0000
vn 0.4856 -0.8742 -0.0000
vn -1.0000 0.0000 -0.0000
vn 0.3656 -0.6582 -0.6581
vn 0.3656 -0.6582 0.6581
vn -0.3656 0.6582 -0.6581
vn -0.3656 0.6582 0.6581
vn -0.0000 0.0000 -1.0000
vn -1.0000 0.0000 0.0000
vn 0.0000 0.0000 -1.0000
vn 0.0000 -1.0000 -0.0000
vn -0.0000 1.0000 -0.0000
vn 0.0000 1.0000 -0.0000
vn -0.7072 0.0000 0.7070
vn 0.7071 0.0000 -0.7071
vn -0.7071 0.0000 -0.7071
vn 0.7072 0.0000 0.7070
vn -0.7070 0.0000 -0.7072
vn -0.7071 0.0000 0.7071
vn -0.7036 0.0000 0.7106
vn -0.7036 0.0000 -0.7106
vn 0.7070 0.0000 -0.7072
vn -0.7035 0.0000 0.7106
vn 0.7035 0.0000 0.7107
vn 0.7035 0.0000 -0.7107
vn 0.7037 0.0000 0.7105
vn 0.7037 0.0000 -0.7105
vn -0.7035 0.0000 -0.7106
vn 0.7071 0.0000 0.7071
vn 0.7070 0.0000 0.7072
# 32 vertex normals

vt 0.5250 0.4055 0.0000
vt 0.5250 0.4158 0.0000
vt 0.5195 0.4214 0.0000
vt 0.4805 0.4214 0.0000
vt 0.4750 0.4158 0.0000
vt 0.4750 0.4055 0.0000
vt 0.4805 0.4000 0.0000
vt 0.5195 0.4000 0.0000
vt 0.5195 0.8000 0.0000
vt 0.4805 0.8000 0.0000
vt 0.4805 0.2000 0.0000
vt 0.5195 0.2000 0.0000
vt 0.4055 0.8001 0.0000
vt 0.4158 0.8001 0.0000
vt 0.4158 0.2001 0.0000
vt 0.4055 0.2001 0.0000
vt 0.3999 0.8001 0.0000
vt 0.3999 0.2001 0.0000
vt 0.4213 0.8001 0.0000
vt 0.4213 0.2001 0.0000
vt 0.0249 0.2001 0.0000
vt 0.0352 0.2001 0.0000
vt 0.0352 0.8001 0.0000
vt 0.0249 0.8001 0.0000
vt 0.0407 0.8001 0.0000
vt 0.0407 0.2001 0.0000
vt 0.0193 0.8001 0.0000
vt 0.0193 0.2001 0.0000
vt 0.4750 0.0249 0.0000
vt 0.4750 0.0352 0.0000
vt 0.4805 0.0408 0.0000
vt 0.5195 0.0408 0.0000
vt 0.5250 0.0352 0.0000
vt 0.5250 0.0249 0.0000
vt 0.5195 0.0194 0.0000
vt 0.4805 0.0194 0.0000
vt 0.5417 0.0046 0.0000
vt 0.5417 0.0149 0.0000
vt 0.5361 0.0205 0.0000
vt 0.4639 0.0205 0.0000
vt 0.4583 0.0149 0.0000
vt 0.4583 0.0046 0.0000
vt 0.4639 -0.0009 0.0000
vt 0.5361 -0.0009 0.0000
vt 0.5361 0.8000 0.0000
vt 0.4639 0.8000 0.0000
vt 0.4639 0.2000 0.0000
vt 0.5361 0.2000 0.0000
vt 0.0046 0.8001 0.0000
vt 0.0149 0.8001 0.0000
vt 0.0149 0.2001 0.0000
vt 0.0046 0.2001 0.0000
vt -0.0010 0.8001 0.0000
vt -0.0010 0.2001 0.0000
vt 0.0204 0.8001 0.0000
vt 0.0204 0.2001 0.0000
vt 0.5030 0.7837 0.0000
vt 0.5067 0.7801 0.0000
vt 0.5067 0.7654 0.0000
vt 0.5030 0.7617 0.0000
vt 0.4970 0.7617 0.0000
vt 0.4933 0.7654 0.0000
vt 0.4933 0.7801 0.0000
vt 0.4970 0.7837 0.0000
vt 0.6563 0.0367 0.0000
vt 0.6710 0.0367 0.0000
vt 0.6710 0.4031 0.0000
vt 0.6563 0.4031 0.0000
vt 0.5472 0.0367 0.0000
vt 0.5619 0.0367 0.0000
vt 0.5619 0.4031 0.0000
vt 0.5472 0.4031 0.0000
vt 0.4381 0.0367 0.0000
vt 0.4528 0.0367 0.0000
vt 0.4528 0.4031 0.0000
vt 0.4381 0.4031 0.0000
vt 0.3290 0.0367 0.0000
vt 0.3437 0.0367 0.0000
vt 0.3437 0.4031 0.0000
vt 0.3290 0.4031 0.0000
vt 0.5067 0.5619 0.0000
vt 0.5030 0.5655 0.0000
vt 0.4970 0.5655 0.0000
vt 0.4933 0.5619 0.0000
vt 0.4933 0.5472 0.0000
vt 0.4970 0.5435 0.0000
vt 0.5030 0.5435 0.0000
vt 0.5067 0.5472 0.0000
vt 0.5030 0.6746 0.0000
vt 0.5067 0.6710 0.0000
vt 0.5067 0.6563 0.0000
vt 0.5030 0.6526 0.0000
vt 0.4970 0.6526 0.0000
vt 0.4933 0.6563 0.0000
vt 0.4933 0.6710 0.0000
vt 0.4970 0.6746 0.0000
vt 0.4970 0.0367 0.0000
vt 0.5030 0.0367 0.0000
vt 0.5030 0.4031 0.0000
vt 0.4970 0.4031 0.0000
vt 0.5067 0.2346 0.0000
vt 0.5030 0.2383 0.0000
vt 0.4970 0.2383 0.0000
vt 0.4933 0.2346 0.0000
vt 0.4933 0.2199 0.0000
vt 0.4970 0.2163 0.0000
vt 0.5030 0.2163 0.0000
vt 0.5067 0.2199 0.0000
vt 0.5030 0.4565 0.0000
vt 0.5067 0.4528 0.0000
vt 0.5067 0.4381 0.0000
vt 0.5030 0.4345 0.0000
vt 0.4970 0.4345 0.0000
vt 0.4933 0.4381 0.0000
vt 0.4933 0.4528 0.0000
vt 0.4970 0.4565 0.0000
vt 0.7654 0.0367 0.0000
vt 0.7801 0.0367 0.0000
vt 0.7801 0.4031 0.0000
vt 0.7654 0.4031 0.0000
vt 0.2346 0.0367 0.0000
vt 0.2199 0.0367 0.0000
vt 0.2199 0.4031 0.0000
vt 0.2346 0.4031 0.0000
vt 0.5030 0.3474 0.0000
vt 0.5067 0.3437 0.0000
vt 0.5067 0.3290 0.0000
vt 0.5030 0.3254 0.0000
vt 0.4970 0.3254 0.0000
vt 0.4933 0.3290 0.0000
vt 0.4933 0.3437 0.0000
vt 0.4970 0.3474 0.0000
vt 0.5655 0.4031 0.0000
vt 0.5655 0.0367 0.0000
vt 0.5067 0.0367 0.0000
vt 0.5067 0.4031 0.0000
vt 0.4933 0.4031 0.0000
vt 0.4933 0.0367 0.0000
vt 0.4345 0.4031 0.0000
vt 0.4345 0.0367 0.0000
vt 0.4565 0.0367 0.0000
vt 0.4565 0.4031 0.0000
vt 0.5435 0.0367 0.0000
vt 0.5435 0.4031 0.0000
# 144 texture coords

o RailingE
g RailingE
s 1
f 1/1/1 2/2/1 3/3/1 
f 1/1/1 3/3/1 4/4/1 
f 1/1/1 4/4/1 5/5/1 
f 1/1/1 5/5/1 6/6/1 
f 1/1/1 6/6/1 7/7/1 
f 1/1/1 7/7/1 8/8/1 
f 9/9/2 10/10/2 4/11/2 
f 4/11/2 3/12/2 9/9/2 
f 6/13/3 5/14/3 11/15/3 
f 11/15/3 12/16/3 6/13/3 
f 13/9/4 8/12/4 7/11/4 
f 7/11/4 14/10/4 13/9/4 
f 12/6/5 11/5/5 10/4/5 
f 12/6/5 10/4/5 9/3/5 
f 12/6/5 9/3/5 15/2/5 
f 12/6/5 15/2/5 16/1/5 
f 12/6/5 16/1/5 13/8/5 
f 12/6/5 13/8/5 14/7/5 
f 1/13/6 8/17/6 13/18/6 
f 13/18/6 16/16/6 1/13/6 
f 7/17/7 6/13/7 12/16/7 
f 12/16/7 14/18/7 7/17/7 
f 3/19/8 2/14/8 15/15/8 
f 15/15/8 9/20/8 3/19/8 
f 5/14/9 4/19/9 10/20/9 
f 10/20/9 11/15/9 5/14/9 
f 16/16/10 15/15/10 2/14/10 
f 2/14/10 1/13/10 16/16/10 
f 17/21/10 18/22/10 19/23/10 
f 19/23/10 20/24/10 17/21/10 
f 21/23/9 22/25/9 23/26/9 
f 23/26/9 24/22/9 21/23/9 
f 25/25/8 19/23/8 18/22/8 
f 18/22/8 26/26/8 25/25/8 
f 27/27/7 28/24/7 29/21/7 
f 29/21/7 30/28/7 27/27/7 
f 20/24/6 31/27/6 32/28/6 
f 32/28/6 17/21/6 20/24/6 
f 29/29/5 24/30/5 23/31/5 
f 29/29/5 23/31/5 26/32/5 
f 29/29/5 26/32/5 18/33/5 
f 29/29/5 18/33/5 17/34/5 
f 29/29/5 17/34/5 32/35/5 
f 29/29/5 32/35/5 30/36/5 
f 32/9/4 31/12/4 27/11/4 
f 27/11/4 30/10/4 32/9/4 
f 28/24/3 21/23/3 24/22/3 
f 24/22/3 29/21/3 28/24/3 
f 26/9/2 23/10/2 22/11/2 
f 22/11/2 25/12/2 26/9/2 
f 20/34/1 19/33/1 25/32/1 
f 20/34/1 25/32/1 22/31/1 
f 20/34/1 22/31/1 21/30/1 
f 20/34/1 21/30/1 28/29/1 
f 20/34/1 28/29/1 27/36/1 
f 20/34/1 27/36/1 31/35/1 
f 33/37/1 34/38/1 35/39/1 
f 33/37/1 35/39/1 36/40/1 
f 33/37/1 36/40/1 37/41/1 
f 33/37/1 37/41/1 38/42/1 
f 33/37/1 38/42/1 39/43/1 
f 33/37/1 39/43/1 40/44/1 
f 41/45/2 42/46/2 36/47/2 
f 36/47/2 35/48/2 41/45/2 
f 38/49/3 37/50/3 43/51/3 
f 43/51/3 44/52/3 38/49/3 
f 45/45/4 40/48/4 39/47/4 
f 39/47/4 46/46/4 45/45/4 
f 44/42/11 43/41/11 42/40/11 
f 44/42/11 42/40/11 41/39/11 
f 44/42/11 41/39/11 47/38/11 
f 44/42/11 47/38/11 48/37/11 
f 44/42/11 48/37/11 45/44/11 
f 44/42/11 45/44/11 46/43/11 
f 33/49/6 40/53/6 45/54/6 
f 45/54/6 48/52/6 33/49/6 
f 39/53/7 38/49/7 44/52/7 
f 44/52/7 46/54/7 39/53/7 
f 35/55/8 34/50/8 47/51/8 
f 47/51/8 41/56/8 35/55/8 
f 37/50/9 36/55/9 42/56/9 
f 42/56/9 43/51/9 37/50/9 
f 48/52/12 47/51/12 34/50/12 
f 34/50/12 33/49/12 48/52/12 
f 49/57/13 50/58/13 51/59/13 
f 49/57/13 51/59/13 52/60/13 
f 49/57/13 52/60/13 53/61/13 
f 49/57/13 53/61/13 54/62/13 
f 49/57/13 54/62/13 55/63/13 
f 49/57/13 55/63/13 56/64/13 
f 57/65/12 58/66/12 59/67/12 
f 59/67/12 60/68/12 57/65/12 
f 61/69/12 62/70/12 63/71/12 
f 63/71/12 64/72/12 61/69/12 
f 65/73/12 66/74/12 67/75/12 
f 67/75/12 68/76/12 65/73/12 
f 69/77/12 70/78/12 71/79/12 
f 71/79/12 72/80/12 69/77/12 
f 63/81/14 73/82/14 74/83/14 
f 63/81/14 74/83/14 75/84/14 
f 63/81/14 75/84/14 76/85/14 
f 63/81/14 76/85/14 77/86/14 
f 63/81/14 77/86/14 78/87/14 
f 63/81/14 78/87/14 64/88/14 
f 79/89/13 58/90/13 57/91/13 
f 79/89/13 57/91/13 80/92/13 
f 79/89/13 80/92/13 81/93/13 
f 79/89/13 81/93/13 82/94/13 
f 79/89/13 82/94/13 83/95/13 
f 79/89/13 83/95/13 84/96/13 
f 85/97/1 86/98/1 78/99/1 
f 78/99/1 77/100/1 85/97/1 
f 87/98/5 88/97/5 74/100/5 
f 74/100/5 73/99/5 87/98/5 
f 89/101/14 90/102/14 91/103/14 
f 89/101/14 91/103/14 92/104/14 
f 89/101/14 92/104/14 93/105/14 
f 89/101/14 93/105/14 94/106/14 
f 89/101/14 94/106/14 95/107/14 
f 89/101/14 95/107/14 96/108/14 
f 81/97/1 80/98/1 97/99/1 
f 97/99/1 98/100/1 81/97/1 
f 87/82/13 62/81/13 61/88/13 
f 87/82/13 61/88/13 86/87/13 
f 87/82/13 86/87/13 85/86/13 
f 87/82/13 85/86/13 99/85/13 
f 87/82/13 99/85/13 100/84/13 
f 87/82/13 100/84/13 88/83/13 
f 79/98/5 84/97/5 101/100/5 
f 101/100/5 102/99/5 79/98/5 
f 59/90/14 102/89/14 101/96/14 
f 59/90/14 101/96/14 103/95/14 
f 59/90/14 103/95/14 104/94/14 
f 59/90/14 104/94/14 98/93/14 
f 59/90/14 98/93/14 97/92/14 
f 59/90/14 97/92/14 60/91/14 
f 105/109/13 66/110/13 65/111/13 
f 105/109/13 65/111/13 106/112/13 
f 105/109/13 106/112/13 107/113/13 
f 105/109/13 107/113/13 108/114/13 
f 105/109/13 108/114/13 109/115/13 
f 105/109/13 109/115/13 110/116/13 
f 53/97/1 52/98/1 111/99/1 
f 111/99/1 112/100/1 53/97/1 
f 51/117/12 50/118/12 113/119/12 
f 113/119/12 114/120/12 51/117/12 
f 115/121/3 116/122/3 93/123/3 
f 93/123/3 92/124/3 115/121/3 
f 117/125/13 70/126/13 69/127/13 
f 117/125/13 69/127/13 118/128/13 
f 117/125/13 118/128/13 119/129/13 
f 117/125/13 119/129/13 120/130/13 
f 117/125/13 120/130/13 121/131/13 
f 117/125/13 121/131/13 122/132/13 
f 123/98/5 124/97/5 91/100/5 
f 91/100/5 90/99/5 123/98/5 
f 113/58/15 125/57/15 126/64/15 
f 113/58/15 126/64/15 127/63/15 
f 113/58/15 127/63/15 128/62/15 
f 113/58/15 128/62/15 112/61/15 
f 113/58/15 112/61/15 111/60/15 
f 113/58/15 111/60/15 114/59/15 
f 49/98/5 56/97/5 126/100/5 
f 126/100/5 125/99/5 49/98/5 
f 129/97/1 130/98/1 95/99/1 
f 95/99/1 94/100/1 129/97/1 
f 121/78/3 120/77/3 131/80/3 
f 131/80/3 132/79/3 121/78/3 
f 109/74/3 108/73/3 133/76/3 
f 133/76/3 134/75/3 109/74/3 
f 100/70/3 99/69/3 76/72/3 
f 76/72/3 75/71/3 100/70/3 
f 83/66/3 82/65/3 104/68/3 
f 104/68/3 103/67/3 83/66/3 
f 55/118/3 54/117/3 128/120/3 
f 128/120/3 127/119/3 55/118/3 
f 135/122/12 136/121/12 89/124/12 
f 89/124/12 96/123/12 135/122/12 
f 105/98/5 110/97/5 137/100/5 
f 137/100/5 138/99/5 105/98/5 
f 67/110/15 138/109/15 137/116/15 
f 67/110/15 137/116/15 134/115/15 
f 67/110/15 134/115/15 133/114/15 
f 67/110/15 133/114/15 139/113/15 
f 67/110/15 139/113/15 140/112/15 
f 67/110/15 140/112/15 68/111/15 
f 117/98/5 122/97/5 141/100/5 
f 141/100/5 142/99/5 117/98/5 
f 107/97/1 106/98/1 140/99/1 
f 140/99/1 139/100/1 107/97/1 
f 71/126/15 142/125/15 141/132/15 
f 71/126/15 141/132/15 132/131/15 
f 71/126/15 132/131/15 131/130/15 
f 71/126/15 131/130/15 143/129/15 
f 71/126/15 143/129/15 144/128/15 
f 71/126/15 144/128/15 72/127/15 
f 123/102/13 136/101/13 135/108/13 
f 123/102/13 135/108/13 130/107/13 
f 123/102/13 130/107/13 129/106/13 
f 123/102/13 129/106/13 116/105/13 
f 123/102/13 116/105/13 115/104/13 
f 123/102/13 115/104/13 124/103/13 
f 100/70/16 75/71/16 74/133/16 
f 74/133/16 88/134/16 100/70/16 
f 78/99/17 86/98/17 61/135/17 
f 61/135/17 64/136/17 78/99/17 
f 87/98/18 73/99/18 63/136/18 
f 63/136/18 62/135/18 87/98/18 
f 104/137/19 82/138/19 81/97/19 
f 81/97/19 98/100/19 104/137/19 
f 57/135/17 60/136/17 97/99/17 
f 97/99/17 80/98/17 57/135/17 
f 140/139/17 106/140/17 65/73/17 
f 65/73/17 68/76/17 140/139/17 
f 105/141/18 138/142/18 67/75/18 
f 67/75/18 66/74/18 105/141/18 
f 59/136/20 58/135/20 79/98/20 
f 79/98/20 102/99/20 59/136/20 
f 83/138/21 103/137/21 101/100/21 
f 101/100/21 84/97/21 83/138/21 
f 126/100/22 56/97/22 55/138/22 
f 55/138/22 127/137/22 126/100/22 
f 49/98/23 125/99/23 113/136/23 
f 113/136/23 50/135/23 49/98/23 
f 144/99/24 118/98/24 69/135/24 
f 69/135/24 72/136/24 144/99/24 
f 117/98/18 142/99/18 71/136/18 
f 71/136/18 70/135/18 117/98/18 
f 91/100/25 124/97/25 115/138/25 
f 115/138/25 92/137/25 91/100/25 
f 128/137/26 54/138/26 53/97/26 
f 53/97/26 112/100/26 128/137/26 
f 51/135/27 114/136/27 111/99/27 
f 111/99/27 52/98/27 51/135/27 
f 93/137/28 116/138/28 129/97/28 
f 129/97/28 94/100/28 93/137/28 
f 95/99/29 130/98/29 135/135/29 
f 135/135/29 96/136/29 95/99/29 
f 123/98/30 90/99/30 89/136/30 
f 89/136/30 136/135/30 123/98/30 
f 76/72/19 99/69/19 85/143/19 
f 85/143/19 77/144/19 76/72/19 
f 109/138/21 134/137/21 137/100/21 
f 137/100/21 110/97/21 109/138/21 
f 107/97/31 139/100/31 133/137/31 
f 133/137/31 108/138/31 107/97/31 
f 119/97/32 143/100/32 131/137/32 
f 131/137/32 120/138/32 119/97/32 
f 141/100/21 122/97/21 121/138/21 
f 121/138/21 132/137/21 141/100/21 
f 119/97/1 118/98/1 144/99/1 
f 144/99/1 143/100/1 119/97/1 
f 145/21/10 146/22/10 147/23/10 
f 147/23/10 148/24/10 145/21/10 
f 149/23/9 150/25/9 151/26/9 
f 151/26/9 152/22/9 149/23/9 
f 153/25/8 147/23/8 146/22/8 
f 146/22/8 154/26/8 153/25/8 
f 155/27/7 156/24/7 157/21/7 
f 157/21/7 158/28/7 155/27/7 
f 148/24/6 159/27/6 160/28/6 
f 160/28/6 145/21/6 148/24/6 
f 157/29/5 152/30/5 151/31/5 
f 157/29/5 151/31/5 154/32/5 
f 157/29/5 154/32/5 146/33/5 
f 157/29/5 146/33/5 145/34/5 
f 157/29/5 145/34/5 160/35/5 
f 157/29/5 160/35/5 158/36/5 
f 160/9/4 159/12/4 155/11/4 
f 155/11/4 158/10/4 160/9/4 
f 156/24/3 149/23/3 152/22/3 
f 152/22/3 157/21/3 156/24/3 
f 154/9/2 151/10/2 150/11/2 
f 150/11/2 153/12/2 154/9/2 
f 148/34/1 147/33/1 153/32/1 
f 148/34/1 153/32/1 150/31/1 
f 148/34/1 150/31/1 149/30/1 
f 148/34/1 149/30/1 156/29/1 
f 148/34/1 156/29/1 155/36/1 
f 148/34/1 155/36/1 159/35/1 
# 0 polygons - 280 triangles

