# 3ds Max Wavefront OBJ Exporter v0.97b - (c)2007 guruware
# File Created: 21.12.2023 23:18:20

#
# object LampConvexHull
#

v  -0.0853 0.0001 0.0003
v  -0.0432 0.0001 0.0739
v  0.0401 0.0001 0.0743
v  0.0829 0.0001 0.0005
v  0.0408 0.0001 -0.0733
v  -0.0423 0.0001 -0.0724
v  -0.1149 0.3433 0.0002
v  -0.0580 0.3433 0.0997
v  0.0546 0.3433 0.1003
v  0.1125 0.3433 0.0005
v  0.0555 0.3433 -0.0993
v  -0.0568 0.3433 -0.0981
v  -0.1768 0.3950 0.0000
v  -0.0889 0.3950 0.1536
v  0.0850 0.3950 0.1545
v  0.1743 0.3950 0.0004
v  0.0864 0.3950 -0.1536
v  -0.0871 0.3950 -0.1518
v  -0.0758 0.6202 0.0003
v  -0.0385 0.6202 0.0655
v  0.0354 0.6202 0.0659
v  0.0733 0.6202 0.0005
v  0.0360 0.6202 -0.0649
v  -0.0377 0.6202 -0.0642
# 24 vertices

vn 0.0000 1.0000 -0.0000
vn 0.0000 1.0000 -0.0000
vn 0.0000 1.0000 -0.0000
vn 0.0000 1.0000 -0.0000
vn 0.0000 1.0000 -0.0000
vn 0.0000 1.0000 -0.0000
vn 0.0000 1.0000 -0.0000
vn 0.0000 1.0000 -0.0000
vn 0.0000 1.0000 -0.0000
vn 0.0000 1.0000 -0.0000
vn 0.0000 1.0000 -0.0000
vn 0.0000 1.0000 -0.0000
vn -0.8655 -0.0745 0.4952
vn -0.8655 -0.0745 0.4952
vn -0.8655 -0.0745 0.4952
vn -0.8655 -0.0745 0.4952
vn -0.8655 -0.0745 0.4952
vn -0.8655 -0.0745 0.4952
vn -0.0052 -0.0752 0.9972
vn -0.0052 -0.0752 0.9972
vn -0.0052 -0.0752 0.9972
vn -0.0052 -0.0752 0.9972
vn -0.0052 -0.0752 0.9972
vn -0.0052 -0.0752 0.9972
vn 0.8629 -0.0743 0.4999
vn 0.8629 -0.0743 0.4999
vn 0.8629 -0.0743 0.4999
vn 0.8629 -0.0743 0.4999
vn 0.8629 -0.0743 0.4999
vn 0.8629 -0.0743 0.4999
vn 0.8662 -0.0747 -0.4941
vn 0.8662 -0.0747 -0.4941
vn 0.8662 -0.0747 -0.4941
vn 0.8662 -0.0747 -0.4941
vn 0.8662 -0.0747 -0.4941
vn 0.8662 -0.0747 -0.4941
vn -0.0105 -0.0750 -0.9971
vn -0.0105 -0.0750 -0.9971
vn -0.0105 -0.0750 -0.9971
vn -0.0105 -0.0750 -0.9971
vn -0.0105 -0.0750 -0.9971
vn -0.0105 -0.0750 -0.9971
vn -0.8585 -0.0742 -0.5074
vn -0.8585 -0.0742 -0.5074
vn -0.8585 -0.0742 -0.5074
vn -0.8585 -0.0742 -0.5074
vn -0.8585 -0.0742 -0.5074
vn -0.8585 -0.0742 -0.5074
vn -0.6022 -0.7201 0.3446
vn -0.6022 -0.7201 0.3446
vn -0.6022 -0.7201 0.3446
vn -0.6022 -0.7201 0.3446
vn -0.6022 -0.7201 0.3446
vn -0.6022 -0.7201 0.3446
vn -0.0036 -0.7232 0.6906
vn -0.0036 -0.7232 0.6906
vn -0.0036 -0.7232 0.6906
vn -0.0036 -0.7232 0.6906
vn -0.0036 -0.7232 0.6906
vn -0.0036 -0.7232 0.6906
vn 0.6012 -0.7192 0.3483
vn 0.6012 -0.7192 0.3483
vn 0.6012 -0.7192 0.3483
vn 0.6012 -0.7192 0.3483
vn 0.6012 -0.7192 0.3483
vn 0.6012 -0.7192 0.3483
vn 0.6021 -0.7208 -0.3435
vn 0.6021 -0.7208 -0.3435
vn 0.6021 -0.7208 -0.3435
vn 0.6021 -0.7208 -0.3435
vn 0.6021 -0.7208 -0.3435
vn 0.6021 -0.7208 -0.3435
vn -0.0073 -0.7225 -0.6914
vn -0.0073 -0.7225 -0.6914
vn -0.0073 -0.7225 -0.6914
vn -0.0073 -0.7225 -0.6914
vn -0.0073 -0.7225 -0.6914
vn -0.0073 -0.7225 -0.6914
vn -0.5989 -0.7184 -0.3539
vn -0.5989 -0.7184 -0.3539
vn -0.5989 -0.7184 -0.3539
vn -0.5989 -0.7184 -0.3539
vn -0.5989 -0.7184 -0.3539
vn -0.5989 -0.7184 -0.3539
vn -0.8090 0.3623 0.4629
vn -0.8090 0.3623 0.4629
vn -0.8090 0.3623 0.4629
vn -0.8090 0.3623 0.4629
vn -0.8090 0.3623 0.4629
vn -0.8090 0.3623 0.4629
vn -0.0049 0.3651 0.9310
vn -0.0049 0.3651 0.9310
vn -0.0049 0.3651 0.9310
vn -0.0049 0.3651 0.9310
vn -0.0049 0.3651 0.9310
vn -0.0049 0.3651 0.9310
vn 0.8068 0.3614 0.4674
vn 0.8068 0.3614 0.4674
vn 0.8068 0.3614 0.4674
vn 0.8068 0.3614 0.4674
vn 0.8068 0.3614 0.4674
vn 0.8068 0.3614 0.4674
vn 0.8094 0.3629 -0.4617
vn 0.8094 0.3629 -0.4617
vn 0.8094 0.3629 -0.4617
vn 0.8094 0.3629 -0.4617
vn 0.8094 0.3629 -0.4617
vn 0.8094 0.3629 -0.4617
vn -0.0098 0.3644 -0.9312
vn -0.0098 0.3644 -0.9312
vn -0.0098 0.3644 -0.9312
vn -0.0098 0.3644 -0.9312
vn -0.0098 0.3644 -0.9312
vn -0.0098 0.3644 -0.9312
vn -0.8029 0.3607 -0.4745
vn -0.8029 0.3607 -0.4745
vn -0.8029 0.3607 -0.4745
vn -0.8029 0.3607 -0.4745
vn -0.8029 0.3607 -0.4745
vn -0.8029 0.3607 -0.4745
# 120 vertex normals

vt 0.2564 0.5046 0.4348
vt 0.3763 0.2658 0.4348
vt 0.6136 0.2644 0.4348
vt 0.7354 0.5040 0.4348
vt 0.6155 0.7435 0.4348
vt 0.3788 0.7406 0.4348
vt 0.1720 0.5048 0.9883
vt 0.3341 0.1820 0.9883
vt 0.6550 0.1801 0.9883
vt 0.8197 0.5041 0.9883
vt 0.6576 0.8278 0.9883
vt 0.3376 0.8239 0.9883
vt -0.0042 0.5054 1.0716
vt 0.2461 0.0070 1.0716
vt 0.7415 0.0040 1.0716
vt 0.9958 0.5042 1.0716
vt 0.7455 1.0040 1.0716
vt 0.2514 0.9981 1.0716
vt 0.2836 0.5045 1.4348
vt 0.3899 0.2928 1.4348
vt 0.6002 0.2916 1.4348
vt 0.7082 0.5040 1.4348
vt 0.6019 0.7162 1.4348
vt 0.3921 0.7137 1.4348
# 24 texture coords

g LampConvexHull
f 19/19/1 20/20/2 21/21/3 
f 21/21/4 22/22/5 23/23/6 
f 21/21/7 23/23/8 24/24/9 
f 19/19/10 21/21/11 24/24/12 
f 1/1/13 2/2/14 8/8/15 
f 8/8/16 7/7/17 1/1/18 
f 2/2/19 3/3/20 9/9/21 
f 9/9/22 8/8/23 2/2/24 
f 3/3/25 4/4/26 10/10/27 
f 10/10/28 9/9/29 3/3/30 
f 4/4/31 5/5/32 11/11/33 
f 11/11/34 10/10/35 4/4/36 
f 5/5/37 6/6/38 12/12/39 
f 12/12/40 11/11/41 5/5/42 
f 6/6/43 1/1/44 7/7/45 
f 7/7/46 12/12/47 6/6/48 
f 7/7/49 8/8/50 14/14/51 
f 14/14/52 13/13/53 7/7/54 
f 8/8/55 9/9/56 15/15/57 
f 15/15/58 14/14/59 8/8/60 
f 9/9/61 10/10/62 16/16/63 
f 16/16/64 15/15/65 9/9/66 
f 10/10/67 11/11/68 17/17/69 
f 17/17/70 16/16/71 10/10/72 
f 11/11/73 12/12/74 18/18/75 
f 18/18/76 17/17/77 11/11/78 
f 12/12/79 7/7/80 13/13/81 
f 13/13/82 18/18/83 12/12/84 
f 13/13/85 14/14/86 20/20/87 
f 20/20/88 19/19/89 13/13/90 
f 14/14/91 15/15/92 21/21/93 
f 21/21/94 20/20/95 14/14/96 
f 15/15/97 16/16/98 22/22/99 
f 22/22/100 21/21/101 15/15/102 
f 16/16/103 17/17/104 23/23/105 
f 23/23/106 22/22/107 16/16/108 
f 17/17/109 18/18/110 24/24/111 
f 24/24/112 23/23/113 17/17/114 
f 18/18/115 13/13/116 19/19/117 
f 19/19/118 24/24/119 18/18/120 
# 40 faces

