# 3ds Max Wavefront OBJ Exporter v0.97b - (c)2007 guruware
# File Created: 23.12.2023 17:55:25

#
# object LampConvexHull_2
#

v  -0.0233 0.0854 0.0005
v  -0.0122 0.0854 0.0198
v  0.0096 0.0854 0.0199
v  0.0208 0.0854 0.0005
v  0.0098 0.0854 -0.0188
v  -0.0120 0.0854 -0.0186
v  -0.0524 0.2119 0.0004
v  -0.0268 0.2119 0.0452
v  0.0239 0.2119 0.0454
v  0.0500 0.2119 0.0005
v  0.0243 0.2119 -0.0444
v  -0.0263 0.2119 -0.0439
v  -0.0175 0.3591 0.0005
v  -0.0094 0.3591 0.0147
v  0.0067 0.3591 0.0148
v  0.0151 0.3591 0.0005
v  0.0070 0.3591 -0.0137
v  -0.0092 0.3591 -0.0135
# 18 vertices

vn -0.8514 -0.1943 0.4872
vn -0.8514 -0.1943 0.4872
vn -0.8514 -0.1943 0.4872
vn -0.8514 -0.1943 0.4872
vn -0.8514 -0.1943 0.4872
vn -0.8514 -0.1943 0.4872
vn -0.0051 -0.1960 0.9806
vn -0.0051 -0.1960 0.9806
vn -0.0051 -0.1960 0.9806
vn -0.0051 -0.1960 0.9806
vn -0.0051 -0.1960 0.9806
vn -0.0051 -0.1960 0.9806
vn 0.8489 -0.1938 0.4918
vn 0.8489 -0.1938 0.4918
vn 0.8489 -0.1938 0.4918
vn 0.8489 -0.1938 0.4918
vn 0.8489 -0.1938 0.4918
vn 0.8489 -0.1938 0.4918
vn 0.8520 -0.1947 -0.4860
vn 0.8520 -0.1947 -0.4860
vn 0.8520 -0.1947 -0.4860
vn 0.8520 -0.1947 -0.4860
vn 0.8520 -0.1947 -0.4860
vn 0.8520 -0.1947 -0.4860
vn -0.0103 -0.1956 -0.9806
vn -0.0103 -0.1956 -0.9806
vn -0.0103 -0.1956 -0.9806
vn -0.0103 -0.1956 -0.9806
vn -0.0103 -0.1956 -0.9806
vn -0.0103 -0.1956 -0.9806
vn -0.8446 -0.1934 -0.4992
vn -0.8446 -0.1934 -0.4992
vn -0.8446 -0.1934 -0.4992
vn -0.8446 -0.1934 -0.4992
vn -0.8446 -0.1934 -0.4992
vn -0.8446 -0.1934 -0.4992
vn -0.8090 0.3623 0.4629
vn -0.8090 0.3623 0.4629
vn -0.8090 0.3623 0.4629
vn -0.8090 0.3623 0.4629
vn -0.8090 0.3623 0.4629
vn -0.8090 0.3623 0.4629
vn -0.0049 0.3651 0.9310
vn -0.0049 0.3651 0.9310
vn -0.0049 0.3651 0.9310
vn -0.0049 0.3651 0.9310
vn -0.0049 0.3651 0.9310
vn -0.0049 0.3651 0.9310
vn 0.8068 0.3614 0.4674
vn 0.8068 0.3614 0.4674
vn 0.8068 0.3614 0.4674
vn 0.8068 0.3614 0.4674
vn 0.8068 0.3614 0.4674
vn 0.8068 0.3614 0.4674
vn 0.8094 0.3629 -0.4617
vn 0.8094 0.3629 -0.4617
vn 0.8094 0.3629 -0.4617
vn 0.8094 0.3629 -0.4617
vn 0.8094 0.3629 -0.4617
vn 0.8094 0.3629 -0.4617
vn -0.0098 0.3644 -0.9312
vn -0.0098 0.3644 -0.9312
vn -0.0098 0.3644 -0.9312
vn -0.0098 0.3644 -0.9312
vn -0.0098 0.3644 -0.9312
vn -0.0098 0.3644 -0.9312
vn -0.8029 0.3607 -0.4745
vn -0.8029 0.3607 -0.4745
vn -0.8029 0.3607 -0.4745
vn -0.8029 0.3607 -0.4745
vn -0.8029 0.3607 -0.4745
vn -0.8029 0.3607 -0.4745
# 72 vertex normals

g LampConvexHull_2
f 1//1 2//2 8//3 
f 8//4 7//5 1//6 
f 2//7 3//8 9//9 
f 9//10 8//11 2//12 
f 3//13 4//14 10//15 
f 10//16 9//17 3//18 
f 4//19 5//20 11//21 
f 11//22 10//23 4//24 
f 5//25 6//26 12//27 
f 12//28 11//29 5//30 
f 6//31 1//32 7//33 
f 7//34 12//35 6//36 
f 7//37 8//38 14//39 
f 14//40 13//41 7//42 
f 8//43 9//44 15//45 
f 15//46 14//47 8//48 
f 9//49 10//50 16//51 
f 16//52 15//53 9//54 
f 10//55 11//56 17//57 
f 17//58 16//59 10//60 
f 11//61 12//62 18//63 
f 18//64 17//65 11//66 
f 12//67 7//68 13//69 
f 13//70 18//71 12//72 
# 24 faces

