# 3ds Max Wavefront OBJ Exporter v0.97b - (c)2007 guruware
# File Created: 26.12.2023 22:21:00

#
# object SofaRightArm_ConvexMesh
#

v  1.3594 0.6476 0.9375
v  1.1996 0.5552 0.9375
v  1.0658 0.5552 0.9375
v  0.9420 0.5552 0.9375
v  1.3594 0.6476 0.1239
v  1.1996 0.5552 0.1239
v  1.0658 0.5552 0.1239
v  0.9420 0.5552 0.1239
v  1.3628 0.8176 0.9375
v  1.1996 0.8685 0.9375
v  1.0658 0.8181 0.9375
v  0.9743 0.6654 0.9375
v  1.3628 0.8176 0.1239
v  1.1996 0.8685 0.1239
v  1.0658 0.8181 0.1239
v  0.9743 0.6654 0.1239
v  1.1257 -0.0036 0.9375
v  1.1257 -0.0036 0.1239
v  1.1171 -0.0036 0.1239
v  1.0038 -0.0036 0.1239
v  0.9420 -0.0036 0.1239
v  0.9420 -0.0036 0.9375
v  1.0038 -0.0036 0.9375
v  1.0526 -0.0036 0.9375
# 24 vertices

vn 0.0000 -1.0000 -0.0000
vn 0.0000 -1.0000 -0.0000
vn 0.0000 -1.0000 -0.0000
vn 0.0000 -1.0000 -0.0000
vn 0.0000 -1.0000 -0.0000
vn 0.0000 -1.0000 -0.0000
vn 0.0000 -1.0000 -0.0000
vn 0.0000 -1.0000 -0.0000
vn 0.0000 -1.0000 -0.0000
vn 0.0000 -1.0000 -0.0000
vn 0.0000 -1.0000 -0.0000
vn 0.0000 -1.0000 -0.0000
vn 0.0000 -1.0000 -0.0000
vn 0.0000 -1.0000 -0.0000
vn 0.0000 -1.0000 -0.0000
vn 0.0000 -1.0000 -0.0000
vn 0.0000 -1.0000 -0.0000
vn 0.0000 -1.0000 -0.0000
vn 0.2978 0.9546 -0.0000
vn 0.2978 0.9546 -0.0000
vn -0.0291 0.9996 -0.0000
vn -0.0291 0.9996 -0.0000
vn -0.0291 0.9996 -0.0000
vn 0.2978 0.9546 -0.0000
vn -0.0291 0.9996 -0.0000
vn -0.0291 0.9996 -0.0000
vn -0.6411 0.7675 0.0000
vn -0.6411 0.7675 0.0000
vn -0.6411 0.7675 0.0000
vn -0.0291 0.9996 -0.0000
vn -0.6411 0.7675 0.0000
vn -0.6411 0.7675 0.0000
vn -0.8578 0.5139 0.0000
vn -0.8578 0.5139 0.0000
vn -0.8578 0.5139 0.0000
vn -0.6411 0.7675 0.0000
vn 0.0000 0.0000 1.0000
vn 0.0000 -0.0000 1.0000
vn 0.0000 0.0000 1.0000
vn 0.0000 0.0000 1.0000
vn 0.0000 0.0000 1.0000
vn 0.0000 0.0000 1.0000
vn 0.0000 0.0000 1.0000
vn 0.0000 0.0000 1.0000
vn 0.0000 0.0000 1.0000
vn 0.0000 0.0000 1.0000
vn 0.0000 0.0000 1.0000
vn 0.0000 0.0000 1.0000
vn 0.0000 0.0000 1.0000
vn 0.0000 0.0000 1.0000
vn 0.0000 0.0000 1.0000
vn 0.0000 0.0000 1.0000
vn 0.0000 -0.0000 1.0000
vn 0.0000 0.0000 1.0000
vn -0.9595 0.2817 0.0000
vn -0.9595 0.2817 0.0000
vn -0.9595 0.2817 0.0000
vn -0.9595 0.2817 0.0000
vn -0.9595 0.2817 0.0000
vn -0.9595 0.2817 0.0000
vn -0.0000 0.0000 -1.0000
vn -0.0000 0.0000 -1.0000
vn -0.0000 -0.0000 -1.0000
vn -0.0000 -0.0000 -1.0000
vn 0.0000 -0.0000 -1.0000
vn -0.0000 0.0000 -1.0000
vn 0.0000 -0.0000 -1.0000
vn -0.0000 -0.0000 -1.0000
vn -0.0000 -0.0000 -1.0000
vn -0.0000 -0.0000 -1.0000
vn -0.0000 -0.0000 -1.0000
vn 0.0000 -0.0000 -1.0000
vn -0.0000 -0.0000 -1.0000
vn -0.0000 -0.0000 -1.0000
vn -0.0000 -0.0000 -1.0000
vn -0.0000 -0.0000 -1.0000
vn 0.0000 -0.0000 -1.0000
vn -0.0000 -0.0000 -1.0000
vn 0.9998 -0.0200 -0.0000
vn 0.9998 -0.0200 -0.0000
vn 0.9998 -0.0200 -0.0000
vn 0.9998 -0.0200 -0.0000
vn 0.9998 -0.0200 -0.0000
vn 0.9998 -0.0200 -0.0000
vn 0.9412 -0.3378 -0.0000
vn 0.9412 -0.3378 -0.0000
vn 0.9412 -0.3378 -0.0000
vn 0.9412 -0.3378 -0.0000
vn 0.9412 -0.3378 -0.0000
vn 0.9412 -0.3378 -0.0000
vn 0.0000 0.0000 -1.0000
vn 0.0000 0.0000 -1.0000
vn 0.0000 0.0000 -1.0000
vn 0.0000 0.0000 -1.0000
vn 0.0000 0.0000 -1.0000
vn 0.0000 0.0000 -1.0000
vn 0.0000 0.0000 -1.0000
vn 0.0000 0.0000 -1.0000
vn 0.0000 0.0000 -1.0000
vn 0.0000 0.0000 -1.0000
vn 0.0000 0.0000 -1.0000
vn 0.0000 0.0000 -1.0000
vn 0.0000 0.0000 -1.0000
vn 0.0000 0.0000 -1.0000
vn 0.0000 0.0000 -1.0000
vn 0.0000 0.0000 -1.0000
vn 0.0000 0.0000 -1.0000
vn 0.0000 0.0000 -1.0000
vn -1.0000 0.0000 0.0000
vn -1.0000 0.0000 0.0000
vn -1.0000 0.0000 0.0000
vn -1.0000 0.0000 0.0000
vn -1.0000 0.0000 0.0000
vn -1.0000 0.0000 0.0000
vn 0.0000 0.0000 1.0000
vn 0.0000 0.0000 1.0000
vn 0.0000 0.0000 1.0000
vn 0.0000 -0.0000 1.0000
vn 0.0000 -0.0000 1.0000
vn 0.0000 -0.0000 1.0000
vn 0.0000 0.0000 1.0000
vn 0.0000 0.0000 1.0000
vn 0.0000 0.0000 1.0000
vn 0.0000 0.0000 1.0000
vn 0.0000 0.0000 1.0000
vn 0.0000 0.0000 1.0000
vn 0.0000 -0.0000 1.0000
vn 0.0000 -0.0000 1.0000
vn 0.0000 -0.0000 1.0000
vn 0.0000 -0.0000 1.0000
vn 0.0000 -0.0000 1.0000
vn 0.0000 -0.0000 1.0000
# 132 vertex normals

vt 1.0000 0.0000 0.0000
vt 0.6667 0.0000 0.0000
vt 0.3333 0.0000 0.0000
vt -0.0000 0.0000 0.0000
vt 1.0000 1.0000 0.0000
vt 0.6667 1.0000 0.0000
vt 0.3333 1.0000 0.0000
vt -0.0000 1.0000 0.0000
vt 0.0000 0.0000 0.0000
vt 0.3333 0.0000 0.0000
vt 0.6667 0.0000 0.0000
vt 1.0000 0.0000 0.0000
vt 0.0000 1.0000 0.0000
vt 0.3333 1.0000 0.0000
vt 0.6667 1.0000 0.0000
vt 1.0000 1.0000 0.0000
vt 0.0000 0.0000 0.0000
vt 0.3333 0.0000 0.0000
vt 0.6667 0.0000 0.0000
vt 1.0000 0.0000 0.0000
vt 0.0000 1.0000 0.0000
vt 0.3333 1.0000 0.0000
vt 0.6667 1.0000 0.0000
vt 1.0000 1.0000 0.0000
vt 0.0000 0.0000 0.0000
vt 1.0000 0.0000 0.0000
vt 0.0000 1.0000 0.0000
vt 1.0000 1.0000 0.0000
vt 0.0000 0.0000 0.0000
vt 0.3333 0.0000 0.0000
vt 0.6667 0.0000 0.0000
vt 1.0000 0.0000 0.0000
vt 0.0000 1.0000 0.0000
vt 0.3333 1.0000 0.0000
vt 0.6667 1.0000 0.0000
vt 1.0000 1.0000 0.0000
vt 0.0000 0.0000 0.0000
vt 1.0000 0.0000 0.0000
vt 0.0000 1.0000 0.0000
vt 1.0000 1.0000 0.0000
vt 1.0000 0.0000 0.0000
vt 1.0000 1.0000 0.0000
vt 0.6667 1.0000 0.0000
vt 0.3333 1.0000 0.0000
vt -0.0000 1.0000 0.0000
vt -0.0000 0.0000 0.0000
vt 0.3333 0.0000 0.0000
vt 0.6667 0.0000 0.0000
# 48 texture coords

g SofaRightArm_ConvexMesh
f 17/41/1 24/48/2 19/43/3 
f 19/43/4 18/42/5 17/41/6 
f 24/48/7 23/47/8 20/44/9 
f 20/44/10 19/43/11 24/48/12 
f 23/47/13 22/46/14 21/45/15 
f 21/45/16 20/44/17 23/47/18 
f 9/9/19 13/13/20 14/14/21 
f 14/14/22 10/10/23 9/9/24 
f 10/10/25 14/14/26 15/15/27 
f 15/15/28 11/11/29 10/10/30 
f 11/11/31 15/15/32 16/16/33 
f 16/16/34 12/12/35 11/11/36 
f 1/17/37 9/21/38 10/22/39 
f 10/22/40 2/18/41 1/17/42 
f 2/18/43 10/22/44 11/23/45 
f 11/23/46 3/19/47 2/18/48 
f 3/19/49 11/23/50 12/24/51 
f 12/24/52 4/20/53 3/19/54 
f 4/25/55 12/27/56 16/28/57 
f 16/28/58 8/26/59 4/25/60 
f 8/29/61 16/33/62 15/34/63 
f 15/34/64 7/30/65 8/29/66 
f 7/30/67 15/34/68 14/35/69 
f 14/35/70 6/31/71 7/30/72 
f 6/31/73 14/35/74 13/36/75 
f 13/36/76 5/32/77 6/31/78 
f 5/37/79 13/39/80 9/40/81 
f 9/40/82 1/38/83 5/37/84 
f 1/1/85 17/41/86 18/42/87 
f 18/42/88 5/5/89 1/1/90 
f 5/5/91 18/42/92 19/43/93 
f 19/43/94 6/6/95 5/5/96 
f 6/6/97 19/43/98 20/44/99 
f 20/44/100 7/7/101 6/6/102 
f 7/7/103 20/44/104 21/45/105 
f 21/45/106 8/8/107 7/7/108 
f 8/8/109 21/45/110 22/46/111 
f 22/46/112 4/4/113 8/8/114 
f 4/4/115 22/46/116 23/47/117 
f 23/47/118 3/3/119 4/4/120 
f 3/3/121 23/47/122 24/48/123 
f 24/48/124 2/2/125 3/3/126 
f 2/2/127 24/48/128 17/41/129 
f 17/41/130 1/1/131 2/2/132 
# 44 faces

