# 3ds Max Wavefront OBJ Exporter v0.97b - (c)2007 guruware
# File Created: 26.12.2023 22:19:33

#
# object SofaCushion4_ConvexMesh
#

v  0.8691 0.5638 0.6277
v  0.7772 0.5596 0.4175
v  0.7909 0.8872 0.3445
v  1.0041 0.9513 0.4525
v  0.5774 0.5854 0.2599
v  0.6942 0.8716 0.1936
v  0.9771 0.7124 0.5247
v  0.9504 0.8930 0.3059
v  0.7513 0.6436 0.2346
v  0.8271 0.7772 0.4797
v  0.7416 1.0059 0.1696
v  0.9180 0.6176 0.4060
v  0.7842 0.6045 0.4988
v  0.9267 0.9509 0.3327
v  1.0274 0.8928 0.4360
v  0.7192 0.5663 0.3538
v  0.9981 0.8448 0.5629
v  0.6216 0.6757 0.2313
v  0.7439 0.6128 0.4377
v  0.8170 0.8262 0.1944
v  0.7122 0.7562 0.2042
v  1.0556 0.9610 0.5442
v  0.6948 0.7940 0.3176
v  0.7990 0.9681 0.2437
# 24 vertices

vn -0.7543 0.2475 0.6081
vn -0.7297 0.2618 0.6317
vn -0.7368 0.4335 0.5189
vn 0.9127 -0.3933 -0.1108
vn 0.8047 -0.4204 -0.4192
vn 0.8595 -0.2201 -0.4613
vn -0.4681 0.8277 0.3095
vn -0.6094 0.5813 0.5392
vn -0.4086 0.4425 0.7983
vn 0.6168 -0.1925 -0.7632
vn 0.5488 -0.3806 -0.7443
vn 0.2425 -0.2916 -0.9253
vn 0.7660 -0.2050 -0.6092
vn 0.7025 -0.4126 -0.5799
vn 0.5488 -0.3806 -0.7443
vn -0.7304 0.4244 0.5352
vn -0.7684 0.2810 0.5749
vn -0.7543 0.2475 0.6081
vn 0.3514 0.9226 -0.1591
vn 0.7841 0.2439 -0.5707
vn 0.4990 0.1426 -0.8548
vn -0.7684 0.2810 0.5749
vn -0.7304 0.4244 0.5352
vn -0.8984 0.3989 0.1836
vn -0.4086 0.4425 0.7983
vn -0.7368 0.4335 0.5189
vn -0.7297 0.2618 0.6317
vn 0.9127 -0.3933 -0.1108
vn 0.5505 -0.8221 -0.1451
vn 0.3464 -0.8994 -0.2666
vn 0.8428 0.2245 -0.4892
vn 0.7841 0.2439 -0.5707
vn 0.3514 0.9226 -0.1591
vn 0.8595 -0.2201 -0.4613
vn 0.9492 -0.2589 -0.1790
vn 0.9127 -0.3933 -0.1108
vn -0.3248 -0.9184 0.2258
vn -0.7826 -0.2534 0.5685
vn -0.7137 -0.1911 0.6739
vn 0.2619 -0.4439 -0.8570
vn -0.0073 -0.2363 -0.9716
vn -0.0687 -0.1761 -0.9820
vn -0.6094 0.5813 0.5392
vn -0.4681 0.8277 0.3095
vn -0.3428 0.8701 0.3541
vn -0.7543 0.2475 0.6081
vn -0.7368 0.4335 0.5189
vn -0.7304 0.4244 0.5352
vn -0.8165 0.4670 0.3395
vn -0.5351 0.6122 0.5822
vn -0.2958 0.7981 0.5249
vn 0.4990 0.1426 -0.8548
vn 0.3191 -0.1711 -0.9321
vn -0.0155 -0.1358 -0.9906
vn 0.3464 -0.8994 -0.2666
vn 0.7012 -0.5971 -0.3897
vn 0.9127 -0.3933 -0.1108
vn 0.4838 -0.5683 -0.6655
vn 0.7012 -0.5971 -0.3897
vn 0.3464 -0.8994 -0.2666
vn -0.3615 -0.9186 0.1593
vn -0.3292 -0.9401 0.0881
vn -0.8469 -0.2338 0.4776
vn -0.7297 0.2618 0.6317
vn -0.4388 0.2713 0.8566
vn -0.4086 0.4425 0.7983
vn -0.3428 0.8701 0.3541
vn -0.2958 0.7981 0.5249
vn -0.5351 0.6122 0.5822
vn -0.3428 0.8701 0.3541
vn -0.5351 0.6122 0.5822
vn -0.6094 0.5813 0.5392
vn 0.4322 -0.0173 0.9016
vn 0.9387 -0.2873 0.1904
vn 0.9944 -0.0161 -0.1044
vn 0.3514 0.9226 -0.1591
vn 0.3041 0.9260 -0.2236
vn 0.8428 0.2245 -0.4892
vn 0.3464 -0.8994 -0.2666
vn 0.2422 -0.8915 -0.3829
vn 0.4838 -0.5683 -0.6655
vn -0.0073 -0.2363 -0.9716
vn 0.2619 -0.4439 -0.8570
vn 0.1958 -0.7896 -0.5816
vn 0.4322 -0.0173 0.9016
vn 0.5027 0.1002 0.8586
vn 0.9121 -0.3057 0.2730
vn 0.9121 -0.3057 0.2730
vn 0.9387 -0.2873 0.1904
vn 0.4322 -0.0173 0.9016
vn -0.3248 -0.9184 0.2258
vn -0.7137 -0.1911 0.6739
vn -0.8418 -0.0441 0.5381
vn 0.1958 -0.7896 -0.5816
vn 0.0779 -0.4919 -0.8672
vn -0.0073 -0.2363 -0.9716
vn -0.8469 -0.2338 0.4776
vn -0.7826 -0.2534 0.5685
vn -0.3615 -0.9186 0.1593
vn -0.3248 -0.9184 0.2258
vn -0.3615 -0.9186 0.1593
vn -0.7826 -0.2534 0.5685
vn 0.3191 -0.1711 -0.9321
vn 0.4990 0.1426 -0.8548
vn 0.7841 0.2439 -0.5707
vn 0.5488 -0.3806 -0.7443
vn 0.6168 -0.1925 -0.7632
vn 0.7660 -0.2050 -0.6092
vn -0.0687 -0.1761 -0.9820
vn -0.0155 -0.1358 -0.9906
vn 0.3191 -0.1711 -0.9321
vn -0.8165 0.4670 0.3395
vn -0.8984 0.3989 0.1836
vn -0.7304 0.4244 0.5352
vn 0.9944 -0.0161 -0.1044
vn 0.9325 0.1144 -0.3427
vn 0.3041 0.9260 -0.2236
vn -0.4086 0.4425 0.7983
vn -0.4576 0.6918 0.5587
vn -0.4681 0.8277 0.3095
vn -0.5351 0.6122 0.5822
vn -0.7304 0.4244 0.5352
vn -0.7368 0.4335 0.5189
vn -0.7304 0.4244 0.5352
vn -0.5351 0.6122 0.5822
vn -0.8165 0.4670 0.3395
vn -0.2958 0.7981 0.5249
vn -0.5060 0.6874 0.5210
vn -0.8165 0.4670 0.3395
vn -0.0155 -0.1358 -0.9906
vn 0.2080 0.0848 -0.9745
vn 0.4990 0.1426 -0.8548
# 132 vertex normals

g SofaCushion4_ConvexMesh
f 19//1 13//2 10//3 
f 7//4 12//5 8//6 
f 4//7 10//8 17//9 
f 20//10 9//11 21//12 
f 8//13 12//14 9//15 
f 23//16 18//17 19//18 
f 14//19 8//20 24//21 
f 18//22 23//23 21//24 
f 17//25 10//26 13//27 
f 7//28 1//29 2//30 
f 15//31 8//32 14//33 
f 8//34 15//35 7//36 
f 16//37 19//38 18//39 
f 9//40 18//41 21//42 
f 10//43 4//44 14//45 
f 19//46 10//47 23//48 
f 6//49 3//50 24//51 
f 24//52 20//53 6//54 
f 2//55 12//56 7//57 
f 9//58 12//59 2//60 
f 2//61 1//62 13//63 
f 13//64 1//65 17//66 
f 14//67 24//68 3//69 
f 14//70 3//71 10//72 
f 17//73 15//74 22//75 
f 14//76 4//77 15//78 
f 2//79 16//80 9//81 
f 18//82 9//83 16//84 
f 17//85 1//86 7//87 
f 7//88 15//89 17//90 
f 16//91 18//92 5//93 
f 16//94 5//95 18//96 
f 13//97 19//98 2//99 
f 16//100 2//101 19//102 
f 20//103 24//104 8//105 
f 9//106 20//107 8//108 
f 21//109 6//110 20//111 
f 6//112 21//113 23//114 
f 22//115 15//116 4//117 
f 17//118 22//119 4//120 
f 3//121 23//122 10//123 
f 23//124 3//125 6//126 
f 24//127 11//128 6//129 
f 6//130 11//131 24//132 
# 44 faces

