# 3ds Max Wavefront OBJ Exporter v0.97b - (c)2007 guruware
# File Created: 13.07.2021 11:26:40

#
# object SM_Wall_Trim_Top
#

v  0.0000 2.4000 0.0500
v  0.0000 2.3896 0.0500
v  1.0000 2.3896 0.0500
v  1.0000 2.4000 0.0500
v  0.0000 2.3743 0.0296
v  1.0000 2.3743 0.0296
v  0.0000 2.3474 0.0237
v  1.0000 2.3474 0.0237
v  0.0000 2.3277 0.0095
v  1.0000 2.3277 0.0095
v  0.0000 2.3183 0.0094
v  1.0000 2.3183 0.0094
v  0.0000 2.3183 -0.0000
v  1.0000 2.3183 -0.0000
v  1.0000 2.4000 -0.0000
v  0.0000 2.4000 -0.0000
# 16 vertices

vn 0.0000 0.0000 1.0000
vn 0.0000 -0.8000 0.6000
vn 0.0000 -0.5410 0.8410
vn 0.0000 -0.4080 0.9130
vn 0.0000 -0.3123 0.9500
vn 0.0000 -0.0106 0.9999
vn 0.0000 -1.0000 -0.0000
vn 0.0000 1.0000 -0.0000
# 8 vertex normals

vt 0.0020 0.9674 0.0000
vt 0.0020 0.9613 0.0000
vt 0.9980 0.9613 0.0000
vt 0.9980 0.9674 0.0000
vt 0.0020 0.9527 0.0000
vt 0.0020 0.9416 0.0000
vt 0.9980 0.9416 0.0000
vt 0.9980 0.9527 0.0000
vt 0.0020 0.9297 0.0000
vt 0.9980 0.9297 0.0000
vt 0.0020 0.9192 0.0000
vt 0.9980 0.9192 0.0000
vt 0.0020 0.9117 0.0000
vt 0.9980 0.9117 0.0000
vt 0.0020 0.9018 0.0000
vt 0.0020 0.8960 0.0000
vt 0.9980 0.8960 0.0000
vt 0.9980 0.9018 0.0000
vt 0.9980 0.9980 0.0000
vt 0.0020 0.9980 0.0000
vt 0.0020 0.9755 0.0000
vt 0.9980 0.9755 0.0000
# 22 texture coords

o SM_Wall_Trim_Top
g SM_Wall_Trim_Top
f 1/1/1 2/2/1 3/3/1 
f 3/3/1 4/4/1 1/1/1 
f 2/5/2 5/6/3 6/7/3 
f 6/7/3 3/8/2 2/5/2 
f 5/6/3 7/9/4 8/10/4 
f 8/10/4 6/7/3 5/6/3 
f 7/9/4 9/11/5 10/12/5 
f 10/12/5 8/10/4 7/9/4 
f 9/11/5 11/13/6 12/14/6 
f 12/14/6 10/12/5 9/11/5 
f 11/15/7 13/16/7 14/17/7 
f 14/17/7 12/18/7 11/15/7 
f 15/19/8 16/20/8 1/21/8 
f 15/19/8 1/21/8 4/22/8 
# 14 faces

