# 3ds Max Wavefront OBJ Exporter v0.97b - (c)2007 guruware
# File Created: 25.12.2023 03:21:13

#
# object Glass_Bottom
#

v  -0.3168 0.9660 -0.0048
v  0.3171 0.9660 -0.0048
v  0.3171 1.4733 -0.0048
v  -0.3168 1.4733 -0.0048
# 4 vertices

vn 0.0000 0.0000 1.0000
vn 0.0000 0.0000 1.0000
vn 0.0000 0.0000 1.0000
vn 0.0000 0.0000 1.0000
vn 0.0000 0.0000 1.0000
vn 0.0000 0.0000 1.0000
# 6 vertex normals

vt 0.0169 0.0033 0.0000
vt 0.3041 0.0033 0.0000
vt 0.3041 0.2347 0.0000
vt 0.0169 0.2347 0.0000
# 4 texture coords

g Glass_Bottom
f 1/1/1 2/2/2 3/3/3 
f 3/3/4 4/4/5 1/1/6 
# 2 faces

#
# object Glass_Top
#

v  -0.3162 1.7649 -0.0249
v  0.3177 1.7649 -0.0249
v  0.3177 1.9848 -0.0249
v  -0.3162 1.9848 -0.0249
v  -0.3204 1.5227 -0.0249
v  0.3135 1.5227 -0.0249
v  0.3135 1.7560 -0.0249
v  -0.3204 1.7560 -0.0249
# 8 vertices

vn 0.0000 0.0000 1.0000
vn 0.0000 0.0000 1.0000
vn 0.0000 0.0000 1.0000
vn 0.0000 0.0000 1.0000
vn 0.0000 0.0000 1.0000
vn 0.0000 0.0000 1.0000
vn 0.0000 0.0000 1.0000
vn 0.0000 0.0000 1.0000
vn 0.0000 0.0000 1.0000
vn 0.0000 0.0000 1.0000
vn 0.0000 0.0000 1.0000
vn 0.0000 0.0000 1.0000
# 12 vertex normals

vt 0.6544 0.8827 0.0000
vt 0.9404 0.8827 0.0000
vt 0.9404 0.9834 0.0000
vt 0.6544 0.9834 0.0000
vt 0.1708 0.7363 0.0000
vt 0.4632 0.7363 0.0000
vt 0.4632 0.8408 0.0000
vt 0.1708 0.8408 0.0000
# 8 texture coords

g Glass_Top
f 5/5/7 6/6/8 7/7/9 
f 7/7/10 8/8/11 5/5/12 
f 9/9/13 10/10/14 11/11/15 
f 11/11/16 12/12/17 9/9/18 
# 4 faces

#
# object Glass_Top_Back
#

v  0.3162 1.7649 -0.0245
v  -0.3177 1.7649 -0.0245
v  -0.3177 1.9848 -0.0245
v  0.3162 1.9848 -0.0245
v  0.3204 1.5227 -0.0245
v  -0.3135 1.5227 -0.0245
v  -0.3135 1.7560 -0.0245
v  0.3204 1.7560 -0.0245
# 8 vertices

vn 0.0000 0.0000 -1.0000
vn 0.0000 0.0000 -1.0000
vn 0.0000 0.0000 -1.0000
vn 0.0000 0.0000 -1.0000
vn 0.0000 0.0000 -1.0000
vn 0.0000 0.0000 -1.0000
vn 0.0000 0.0000 -1.0000
vn 0.0000 0.0000 -1.0000
vn 0.0000 0.0000 -1.0000
vn 0.0000 0.0000 -1.0000
vn 0.0000 0.0000 -1.0000
vn 0.0000 0.0000 -1.0000
# 12 vertex normals

vt 0.6544 0.8827 0.0000
vt 0.9404 0.8827 0.0000
vt 0.9404 0.9834 0.0000
vt 0.6544 0.9834 0.0000
vt 0.1708 0.7363 0.0000
vt 0.4632 0.7363 0.0000
vt 0.4632 0.8408 0.0000
vt 0.1708 0.8408 0.0000
# 8 texture coords

g Glass_Top_Back
f 13/13/19 14/14/20 15/15/21 
f 15/15/22 16/16/23 13/13/24 
f 17/17/25 18/18/26 19/19/27 
f 19/19/28 20/20/29 17/17/30 
# 4 faces

#
# object Glass_Bottom_Back
#

v  0.3168 0.9660 -0.0050
v  -0.3171 0.9660 -0.0050
v  -0.3171 1.4733 -0.0050
v  0.3168 1.4733 -0.0050
# 4 vertices

vn 0.0000 0.0000 -1.0000
vn 0.0000 0.0000 -1.0000
vn 0.0000 0.0000 -1.0000
vn 0.0000 0.0000 -1.0000
vn 0.0000 0.0000 -1.0000
vn 0.0000 0.0000 -1.0000
# 6 vertex normals

vt 0.0169 0.0033 0.0000
vt 0.3041 0.0033 0.0000
vt 0.3041 0.2347 0.0000
vt 0.0169 0.2347 0.0000
# 4 texture coords

g Glass_Bottom_Back
f 21/21/31 22/22/32 23/23/33 
f 23/23/34 24/24/35 21/21/36 
# 2 faces

