# 3ds Max Wavefront OBJ Exporter v0.97b - (c)2007 guruware
# File Created: 05.11.2024 04:00:28

#
# object SM_Wall_Trim_Top
#

v  0.0000 0.0001 0.0500
v  0.0000 -0.0103 0.0500
v  1.0000 -0.0103 0.0500
v  1.0000 0.0001 0.0500
v  0.0000 -0.0256 0.0296
v  1.0000 -0.0256 0.0296
v  0.0000 -0.0525 0.0237
v  1.0000 -0.0525 0.0237
v  0.0000 -0.0722 0.0095
v  1.0000 -0.0722 0.0095
v  0.0000 -0.0816 0.0094
v  1.0000 -0.0816 0.0094
v  0.0000 -0.0816 -0.0000
v  1.0000 -0.0816 -0.0000
v  1.0000 0.0001 -0.0000
v  0.0000 0.0001 -0.0000
# 16 vertices

vn 0.0000 0.0000 1.0000
vn 0.0000 0.0000 1.0000
vn 0.0000 0.0000 1.0000
vn 0.0000 0.0000 1.0000
vn 0.0000 0.0000 1.0000
vn 0.0000 0.0000 1.0000
vn 0.0000 -0.8000 0.6000
vn 0.0000 -0.5410 0.8410
vn 0.0000 -0.5410 0.8410
vn 0.0000 -0.5410 0.8410
vn 0.0000 -0.8000 0.6000
vn 0.0000 -0.8000 0.6000
vn 0.0000 -0.5410 0.8410
vn 0.0000 -0.4080 0.9130
vn 0.0000 -0.4080 0.9130
vn 0.0000 -0.4080 0.9130
vn 0.0000 -0.5410 0.8410
vn 0.0000 -0.5410 0.8410
vn 0.0000 -0.4080 0.9130
vn 0.0000 -0.3123 0.9500
vn 0.0000 -0.3123 0.9500
vn 0.0000 -0.3123 0.9500
vn 0.0000 -0.4080 0.9130
vn 0.0000 -0.4080 0.9130
vn 0.0000 -0.3123 0.9500
vn 0.0000 -0.0106 0.9999
vn 0.0000 -0.0106 0.9999
vn 0.0000 -0.0106 0.9999
vn 0.0000 -0.3123 0.9500
vn 0.0000 -0.3123 0.9500
vn 0.0000 -1.0000 -0.0000
vn 0.0000 -1.0000 -0.0000
vn 0.0000 -1.0000 -0.0000
vn 0.0000 -1.0000 -0.0000
vn 0.0000 -1.0000 -0.0000
vn 0.0000 -1.0000 -0.0000
vn 0.0000 1.0000 -0.0000
vn 0.0000 1.0000 -0.0000
vn 0.0000 1.0000 -0.0000
vn 0.0000 1.0000 -0.0000
vn 0.0000 1.0000 -0.0000
vn 0.0000 1.0000 -0.0000
# 42 vertex normals

vt 0.0020 0.9674 0.0000
vt 0.0020 0.9613 0.0000
vt 0.9980 0.9613 0.0000
vt 0.9980 0.9674 0.0000
vt 0.0020 0.9527 0.0000
vt 0.0020 0.9416 0.0000
vt 0.9980 0.9416 0.0000
vt 0.9980 0.9527 0.0000
vt 0.0020 0.9297 0.0000
vt 0.9980 0.9297 0.0000
vt 0.0020 0.9192 0.0000
vt 0.9980 0.9192 0.0000
vt 0.0020 0.9117 0.0000
vt 0.9980 0.9117 0.0000
vt 0.0020 0.9018 0.0000
vt 0.0020 0.8960 0.0000
vt 0.9980 0.8960 0.0000
vt 0.9980 0.9018 0.0000
vt 0.9980 0.9980 0.0000
vt 0.0020 0.9980 0.0000
vt 0.0020 0.9755 0.0000
vt 0.9980 0.9755 0.0000
# 22 texture coords

g SM_Wall_Trim_Top
f 1/1/1 2/2/2 3/3/3 
f 3/3/4 4/4/5 1/1/6 
f 2/5/7 5/6/8 6/7/9 
f 6/7/10 3/8/11 2/5/12 
f 5/6/13 7/9/14 8/10/15 
f 8/10/16 6/7/17 5/6/18 
f 7/9/19 9/11/20 10/12/21 
f 10/12/22 8/10/23 7/9/24 
f 9/11/25 11/13/26 12/14/27 
f 12/14/28 10/12/29 9/11/30 
f 11/15/31 13/16/32 14/17/33 
f 14/17/34 12/18/35 11/15/36 
f 15/19/37 16/20/38 1/21/39 
f 15/19/40 1/21/41 4/22/42 
# 14 faces

