# 3ds Max Wavefront OBJ Exporter v0.99 - (c)2007 guruware
# File Created: 10.11.2024 03:01:14

mtllib House_RailingC_ConvexMesh.mtl

#
# object RailingC_ConvexMesh
#

v  4.5230 -0.1282 4.6001
v  4.5230 -0.1282 4.3871
v  6.2925 -0.1282 4.3871
v  6.2925 -0.1282 4.6001
v  4.5230 1.1341 4.6001
v  6.2925 1.1341 4.6001
v  6.2925 1.1341 4.3871
v  4.5230 1.1341 4.3871
# 8 vertices

vn -0.5774 -0.5774 0.5774
vn -0.5774 -0.5774 -0.5774
vn 0.5774 -0.5774 -0.5773
vn 0.5774 -0.5773 0.5774
vn -0.5774 0.5774 0.5774
vn 0.5774 0.5774 0.5774
vn 0.5774 0.5774 -0.5773
vn -0.5774 0.5774 -0.5774
# 8 vertex normals

vt 1.0000 0.0000 0.0000
vt 1.0000 1.0000 0.0000
vt 0.0000 1.0000 0.0000
vt 0.0000 0.0000 0.0000
# 4 texture coords

o RailingC_ConvexMesh
g RailingC_ConvexMesh
usemtl wire_220214161
s 2
f 1/1/1 2/2/2 3/3/3 4/4/4 
s 4
f 5/4/5 6/1/6 7/2/7 8/3/8 
s 8
f 1/4/1 4/1/4 6/2/6 5/3/5 
s 16
f 4/4/4 3/1/3 7/2/7 6/3/6 
s 32
f 3/4/3 2/1/2 8/2/8 7/3/7 
s 64
f 2/4/2 1/1/1 5/2/5 8/3/8 
# 6 polygons

