# 3ds Max Wavefront OBJ Exporter v0.99 - (c)2007 guruware
# File Created: 10.11.2024 03:12:30

#
# object RailingE_ConvexMesh
#

v  -9.8742 -1.0821 -0.7467
v  -9.8742 -1.0821 -1.0535
v  -8.0462 -0.0884 -1.0535
v  -8.0462 -0.0884 -0.7467
v  -9.8742 0.1508 -0.7467
v  -8.0462 1.1445 -0.7467
v  -8.0462 1.1445 -1.0535
v  -9.8742 0.1508 -1.0535
# 8 vertices

vn -0.4248 -0.7148 0.5555
vn -0.4249 -0.7147 -0.5556
vn 0.6823 -0.4057 -0.6081
vn 0.6823 -0.4056 0.6082
vn -0.6823 0.4057 0.6081
vn 0.4249 0.7147 0.5556
vn 0.4249 0.7147 -0.5556
vn -0.6823 0.4057 -0.6081
# 8 vertex normals

vt 1.0000 0.0000 0.0000
vt 1.0000 1.0000 0.0000
vt 0.0000 1.0000 0.0000
vt 0.0000 0.0000 0.0000
# 4 texture coords

o RailingE_ConvexMesh
g RailingE_ConvexMesh
s 2
f 1/1/1 2/2/2 3/3/3 4/4/4 
s 4
f 5/4/5 6/1/6 7/2/7 8/3/8 
s 8
f 1/4/1 4/1/4 6/2/6 5/3/5 
s 16
f 4/4/4 3/1/3 7/2/7 6/3/6 
s 32
f 3/4/3 2/1/2 8/2/8 7/3/7 
s 64
f 2/4/2 1/1/1 5/2/5 8/3/8 
# 6 polygons

