# 3ds Max Wavefront OBJ Exporter v0.97b - (c)2007 guruware
# File Created: 23.12.2023 17:43:37

#
# object LampConvexHull_1
#

v  -0.0899 -0.0004 0.0003
v  -0.0455 -0.0004 0.0779
v  0.0424 -0.0004 0.0783
v  0.0875 -0.0004 0.0005
v  0.0431 -0.0004 -0.0774
v  -0.0446 -0.0004 -0.0764
v  -0.0184 0.0850 0.0005
v  -0.0098 0.0850 0.0155
v  0.0072 0.0850 0.0156
v  0.0160 0.0850 0.0005
v  0.0074 0.0850 -0.0146
v  -0.0096 0.0850 -0.0144
# 12 vertices

vn 0.0000 1.0000 -0.0000
vn 0.0000 1.0000 -0.0000
vn 0.0000 1.0000 -0.0000
vn 0.0000 1.0000 -0.0000
vn 0.0000 1.0000 -0.0000
vn 0.0000 1.0000 -0.0000
vn 0.0000 1.0000 -0.0000
vn 0.0000 1.0000 -0.0000
vn 0.0000 1.0000 -0.0000
vn 0.0000 1.0000 -0.0000
vn 0.0000 1.0000 -0.0000
vn 0.0000 1.0000 -0.0000
vn -0.8090 0.3623 0.4629
vn -0.8090 0.3623 0.4629
vn -0.8090 0.3623 0.4629
vn -0.8090 0.3623 0.4629
vn -0.8090 0.3623 0.4629
vn -0.8090 0.3623 0.4629
vn -0.0049 0.3651 0.9310
vn -0.0049 0.3651 0.9310
vn -0.0049 0.3651 0.9310
vn -0.0049 0.3651 0.9310
vn -0.0049 0.3651 0.9310
vn -0.0049 0.3651 0.9310
vn 0.8068 0.3614 0.4674
vn 0.8068 0.3614 0.4674
vn 0.8068 0.3614 0.4674
vn 0.8068 0.3614 0.4674
vn 0.8068 0.3614 0.4674
vn 0.8068 0.3614 0.4674
vn 0.8094 0.3629 -0.4617
vn 0.8094 0.3629 -0.4617
vn 0.8094 0.3629 -0.4617
vn 0.8094 0.3629 -0.4617
vn 0.8094 0.3629 -0.4617
vn 0.8094 0.3629 -0.4617
vn -0.0098 0.3644 -0.9312
vn -0.0098 0.3644 -0.9312
vn -0.0098 0.3644 -0.9312
vn -0.0098 0.3644 -0.9312
vn -0.0098 0.3644 -0.9312
vn -0.0098 0.3644 -0.9312
vn -0.8029 0.3607 -0.4745
vn -0.8029 0.3607 -0.4745
vn -0.8029 0.3607 -0.4745
vn -0.8029 0.3607 -0.4745
vn -0.8029 0.3607 -0.4745
vn -0.8029 0.3607 -0.4745
# 48 vertex normals

g LampConvexHull_1
f 7//1 8//2 9//3 
f 9//4 10//5 11//6 
f 9//7 11//8 12//9 
f 7//10 9//11 12//12 
f 1//13 2//14 8//15 
f 8//16 7//17 1//18 
f 2//19 3//20 9//21 
f 9//22 8//23 2//24 
f 3//25 4//26 10//27 
f 10//28 9//29 3//30 
f 4//31 5//32 11//33 
f 11//34 10//35 4//36 
f 5//37 6//38 12//39 
f 12//40 11//41 5//42 
f 6//43 1//44 7//45 
f 7//46 12//47 6//48 
# 16 faces

