# 3ds Max Wavefront OBJ Exporter v0.97b - (c)2007 guruware
# File Created: 23.03.2024 00:29:58

#
# object Cylinder001
#

v  0.0808 0.2120 -0.5186
v  0.0758 0.2120 -0.5465
v  0.0618 0.2120 -0.5711
v  0.0401 0.2120 -0.5892
v  0.0134 0.2120 -0.5988
v  -0.0149 0.2120 -0.5988
v  -0.0415 0.2100 -0.5892
v  -0.0631 0.2100 -0.5711
v  -0.0773 0.2120 -0.5465
v  -0.0823 0.2120 -0.5186
v  -0.0773 0.2120 -0.4908
v  -0.0631 0.2120 -0.4663
v  -0.0415 0.2120 -0.4481
v  -0.0149 0.2120 -0.4383
v  0.0134 0.2120 -0.4383
v  0.0401 0.2120 -0.4481
v  0.0618 0.2120 -0.4663
v  0.0758 0.2120 -0.4908
# 18 vertices

vn 0.0000 1.0000 -0.0000
vn 0.0000 1.0000 -0.0000
vn -0.0129 0.9999 0.0028
vn -0.0129 0.9999 0.0028
vn 0.0000 1.0000 -0.0000
vn -0.0250 0.9981 0.0567
vn -0.0250 0.9981 0.0567
vn 0.0000 0.9782 0.2078
vn -0.0095 1.0000 0.0024
vn -0.0129 0.9999 0.0028
vn -0.0250 0.9981 0.0567
vn -0.0095 1.0000 0.0024
vn -0.0095 1.0000 0.0024
vn -0.1335 0.9782 -0.1592
vn 0.0416 0.9991 -0.0101
vn 0.0416 0.9991 -0.0101
vn 0.0000 1.0000 -0.0000
vn 0.0134 0.9999 -0.0108
vn -0.0095 1.0000 0.0024
vn 0.0416 0.9991 -0.0101
vn 0.0134 0.9999 -0.0108
vn 0.0134 0.9999 -0.0108
vn 0.0000 1.0000 -0.0000
vn 0.0000 1.0000 -0.0000
vn 0.0000 1.0000 -0.0000
vn 0.0000 1.0000 -0.0000
vn -0.0022 1.0000 -0.0060
vn 0.0134 0.9999 -0.0108
vn 0.0000 1.0000 -0.0000
vn -0.0022 1.0000 -0.0060
vn -0.0095 1.0000 0.0024
vn 0.0134 0.9999 -0.0108
vn -0.0022 1.0000 -0.0060
vn -0.0129 0.9999 0.0028
vn -0.0095 1.0000 0.0024
vn -0.0022 1.0000 -0.0060
vn -0.0022 1.0000 -0.0060
vn 0.0000 1.0000 -0.0000
vn 0.0000 1.0000 -0.0000
vn -0.0129 0.9999 0.0028
vn -0.0022 1.0000 -0.0060
vn 0.0000 1.0000 -0.0000
vn 0.0000 1.0000 -0.0000
vn -0.0129 0.9999 0.0028
vn 0.0000 1.0000 -0.0000
vn 0.0000 1.0000 -0.0000
vn 0.0000 1.0000 -0.0000
vn 0.0000 1.0000 -0.0000
# 48 vertex normals

vt 0.6218 0.0298 1.0000
vt 0.7737 0.1007 1.0000
vt 0.8922 0.2193 1.0000
vt 0.9628 0.3711 1.0000
vt 0.9772 0.5378 1.0000
vt 0.4547 0.0149 1.0000
vt 0.9335 0.6995 0.8794
vt 0.8371 0.8365 0.6527
vt 0.6996 0.9323 0.3473
vt 0.5374 0.9753 0.0000
vt 0.3703 0.9605 -0.3473
vt 0.2184 0.8895 -0.6527
vt 0.0999 0.7710 -0.8794
vt 0.0293 0.6192 -1.0000
vt 0.0149 0.4524 -1.0000
vt 0.0585 0.2908 -0.8794
vt 0.1550 0.1538 -0.6527
vt 0.2925 0.0580 -0.3473
# 18 texture coords

g Cylinder001
f 1/1/1 2/2/2 3/3/3 
f 3/3/4 4/4/5 5/5/6 
f 5/5/7 6/7/8 7/8/9 
f 3/3/10 5/5/11 7/8/12 
f 7/8/13 8/9/14 9/10/15 
f 9/10/16 10/11/17 11/12/18 
f 7/8/19 9/10/20 11/12/21 
f 11/12/22 12/13/23 13/14/24 
f 13/14/25 14/15/26 15/16/27 
f 11/12/28 13/14/29 15/16/30 
f 7/8/31 11/12/32 15/16/33 
f 3/3/34 7/8/35 15/16/36 
f 15/16/37 16/17/38 17/18/39 
f 3/3/40 15/16/41 17/18/42 
f 1/1/43 3/3/44 17/18/45 
f 18/6/46 1/1/47 17/18/48 
# 16 faces

