# Blender 4.2.2 LTS
# www.blender.org
mtllib Rock_ConvexMesh.mtl
o Rock2
v 0.081206 -0.844867 -0.740854
v -0.226288 -1.006608 -0.453884
v -0.493457 -0.513322 -0.224351
v 0.269806 0.462796 0.303357
v 0.249837 -1.195630 -0.308126
v 0.527553 -0.916650 0.591374
v -0.213682 -1.404031 0.143039
v 0.274859 0.535576 -0.428969
v 0.900746 -1.035786 -0.524015
v 0.597186 -1.333693 -0.051877
v 0.471738 0.089841 -0.627714
v 0.359865 -0.255450 -0.840394
v -0.348285 -0.409159 -0.392202
v 0.860657 -0.406116 -0.079021
v -0.201859 -1.221666 -0.196188
v 0.524634 -0.837538 -0.979117
v 0.089678 0.849733 -0.102580
v -0.333071 0.495278 -0.014263
v -0.011635 0.707588 0.332595
v 0.647969 0.132805 -0.204572
v 0.293832 -1.358997 0.666264
v 0.143376 -1.006695 0.655523
v 0.510069 -0.422887 0.564232
v 0.188576 -0.412523 0.656712
v -0.467891 -0.893863 -0.153577
v 0.660284 -0.181861 0.356080
v -0.223396 -0.634180 0.279872
vn -0.6143 -0.3860 0.6882
vn -0.6330 -0.3884 0.6696
vn -0.6610 -0.3691 0.6534
vn 0.2908 -0.1054 0.9510
vn 0.2703 -0.0206 0.9626
vn 0.4211 0.0630 0.9048
vn -0.5721 0.2976 -0.7643
vn -0.5821 0.3084 -0.7524
vn -0.5586 0.3238 -0.7636
vn 0.8055 0.5923 -0.0196
vn 0.7602 0.6347 -0.1390
vn 0.7600 0.6364 -0.1318
vn 0.3113 0.0409 0.9494
vn 0.3543 -0.0225 0.9349
vn 0.1464 -0.0576 0.9875
vn 0.8791 -0.3828 0.2839
vn 0.8705 -0.3694 0.3254
vn 0.8829 -0.3400 0.3240
vn -0.6809 0.0745 0.7286
vn -0.7114 0.0651 0.6998
vn -0.6768 0.0442 0.7348
vn -0.7732 0.1508 -0.6160
vn -0.8410 0.2038 -0.5012
vn -0.8704 0.2099 -0.4454
vn -0.7606 -0.6352 -0.1342
vn -0.7337 -0.6261 -0.2640
vn -0.8765 -0.4411 -0.1929
vn 0.0012 0.5021 -0.8648
vn 0.1710 0.5195 -0.8372
vn 0.0893 0.4627 -0.8820
vn -0.4906 0.8591 0.1454
vn -0.5167 0.8554 0.0360
vn -0.7572 0.6490 0.0738
vn 0.1430 -0.9891 -0.0359
vn 0.1508 -0.9866 0.0621
vn 0.0620 -0.9974 0.0359
vn 0.9142 0.3890 0.1139
vn 0.9068 0.3939 0.1500
vn 0.8881 0.4251 0.1748
vn -0.0468 -0.8586 -0.5104
vn -0.1176 -0.9011 -0.4173
vn -0.0897 -0.8671 -0.4899
vn -0.5073 0.0785 -0.8582
vn -0.5159 0.1203 -0.8482
vn -0.4176 0.0599 -0.9067
vn -0.4262 0.4478 -0.7860
vn -0.5860 0.4081 -0.7000
vn -0.4717 0.4540 -0.7559
vn -0.5385 0.3554 -0.7640
vn -0.5244 0.3680 -0.7679
vn -0.5380 0.3597 -0.7623
vn 0.8554 -0.4169 0.3074
vn 0.8543 -0.3591 0.3758
vn 0.7972 -0.4741 0.3737
vn -0.0829 0.0010 0.9966
vn -0.0172 0.0673 0.9976
vn -0.1551 -0.0391 0.9871
vn -0.0664 -0.9069 -0.4161
vn -0.0597 -0.8663 -0.4959
vn 0.0865 -0.9146 -0.3951
vn 0.6472 0.7062 -0.2869
vn 0.6901 0.6489 -0.3204
vn 0.7818 0.4850 -0.3918
vn -0.8274 -0.1833 -0.5308
vn -0.8247 -0.2741 -0.4947
vn -0.7998 -0.2892 -0.5260
vn 0.7454 0.0702 0.6630
vn 0.7944 -0.0363 0.6063
vn 0.8103 0.1002 0.5774
vn 0.8440 0.4866 0.2254
vn 0.8259 0.4779 0.2991
vn 0.8091 0.5138 0.2852
vn 0.7104 0.6820 0.1742
vn 0.7944 0.5499 0.2579
vn 0.8184 0.5511 0.1626
vn -0.6452 -0.5266 -0.5535
vn -0.6957 -0.5463 -0.4665
vn -0.6838 -0.5003 -0.5312
vn 0.9381 -0.1480 0.3130
vn 0.9069 -0.2295 0.3534
vn 0.9152 -0.2117 0.3428
vn 0.8890 -0.0200 0.4575
vn 0.8777 -0.0523 0.4764
vn 0.9373 -0.0074 0.3483
vn -0.4624 0.1225 -0.8782
vn -0.4181 0.1446 -0.8968
vn -0.4979 0.1175 -0.8592
vn -0.7729 0.2226 0.5943
vn -0.8251 0.1479 0.5453
vn -0.7433 0.0611 0.6662
vn -0.7089 0.0823 0.7005
vn 0.6656 0.6327 0.3958
vn 0.6436 0.6917 0.3276
vn 0.6108 0.6882 0.3917
vn -0.7183 -0.2203 -0.6599
vn -0.6810 -0.0284 -0.7317
vn -0.7864 -0.0681 -0.6140
vn -0.7252 -0.0224 -0.6882
vn 0.2970 0.1641 0.9407
vn 0.2719 0.3120 0.9103
vn 0.4183 0.2351 0.8774
vn 0.8990 0.3073 -0.3122
vn 0.6810 0.3936 -0.6175
vn 0.8291 0.2467 -0.5018
vn 0.8268 0.2624 -0.4976
vn -0.3208 -0.7030 -0.6347
vn -0.2537 -0.7543 -0.6055
vn -0.1008 -0.7487 -0.6552
vn -0.0084 -0.8783 -0.4780
vn -0.0031 -0.8899 -0.4561
vn -0.0973 -0.8730 -0.4780
vn -0.9038 0.0844 0.4195
vn -0.8760 0.0209 0.4818
vn -0.8765 0.0217 0.4809
vn -0.8649 0.0506 0.4993
vn -0.9079 -0.0096 0.4190
vn -0.8786 0.0313 0.4765
vn 0.4738 0.3191 -0.8208
vn 0.5200 0.2996 -0.7999
vn 0.5036 0.3069 -0.8076
vn -0.7959 -0.1100 0.5953
vn -0.7988 -0.1149 0.5905
vn -0.7138 -0.1712 0.6791
vn -0.7931 -0.1037 0.6003
vn -0.3895 -0.5366 -0.7485
vn -0.3690 -0.5040 -0.7809
vn -0.3460 -0.6171 -0.7067
vn 0.8806 0.2987 -0.3678
vn 0.9398 0.2114 -0.2684
vn 0.9211 0.2683 -0.2820
vn 0.4078 0.2849 0.8675
vn 0.4814 0.3204 0.8158
vn 0.5494 0.2975 0.7808
vn 0.4038 0.4181 0.8137
vn 0.3282 0.3792 0.8651
vn 0.3104 0.2537 0.9161
vn 0.0528 -0.8657 -0.4977
vn 0.0771 -0.8913 -0.4469
vn 0.0583 -0.9324 -0.3568
vn -0.0088 -0.8991 -0.4376
vt 0.703447 0.429871
vt 0.781763 0.515808
vt 0.722916 0.521889
vt 0.938633 0.359285
vt 0.847033 0.320846
vt 0.963956 0.255013
vt 0.489014 0.440998
vt 0.182693 0.710329
vt 0.182531 0.434612
vt 0.424494 0.659363
vt 0.541667 0.589392
vt 0.402354 0.827305
vt 0.779501 0.435015
vt 0.688129 0.275104
vt 0.669379 0.088223
vt 0.383872 0.068116
vt 0.256424 0.239573
vt 0.223636 0.021655
vt 0.177565 0.375028
vt 0.044819 0.205315
vt 0.060385 0.093552
vt 0.092362 0.280367
vt 0.299482 0.729004
vt 0.604723 0.384605
vt 0.822057 0.768146
vt 0.914560 0.955425
vt 0.737322 0.958509
vt 0.292240 0.956699
vt 0.455754 0.935352
vt 0.716600 0.746998
vt 0.637444 0.895516
vt 0.020195 0.566629
vt 0.885436 0.438601
vt 0.013447 0.349581
vt 0.967417 0.107057
vt 0.513175 0.890781
vt 0.817564 0.568780
vt 0.917657 0.724668
vt 0.856406 0.763930
vt 0.544223 0.920628
vt 0.542915 0.867435
vt 0.865789 0.034030
vt 0.024343 0.744824
vt 0.885649 0.527520
vt 0.000000 0.000000
vt 0.061211 0.970186
vt 0.601097 0.549192
vt 0.637727 0.267670
vt 0.440661 0.015355
vt 0.558097 0.051356
s 1
usemtl default.001
f 7/1/1 21/2/2 22/3/3
f 24/4/4 6/5/5 23/6/6
f 18/7/7 12/8/8 13/9/9
f 8/10/10 17/11/11 20/12/12
f 21/13/13 6/5/14 24/4/15
f 10/14/16 9/15/17 6/5/18
f 24/16/19 27/17/20 22/18/21
f 13/9/22 3/19/23 18/7/24
f 15/20/25 7/21/26 25/22/27
f 8/10/28 11/23/29 12/8/30
f 19/24/31 17/11/32 18/7/33
f 10/25/34 21/26/35 7/27/36
f 14/28/37 20/12/38 26/29/39
f 5/30/40 7/27/41 15/31/42
f 12/8/43 1/32/44 13/9/45
f 8/10/46 18/7/47 17/11/48
f 18/7/49 8/10/50 12/8/51
f 10/14/52 6/5/53 21/13/54
f 21/13/55 24/4/56 22/33/57
f 7/27/58 5/30/59 10/25/60
f 20/12/61 11/23/62 8/10/63
f 3/19/64 2/34/65 25/22/66
f 23/6/67 6/5/68 26/35/69
f 26/29/70 20/12/71 4/36/72
f 17/37/73 4/38/74 20/39/75
f 25/40/76 2/41/77 15/31/78
f 14/42/79 6/5/80 9/15/81
f 26/35/82 6/5/83 14/42/84
f 12/8/85 16/43/86 1/32/87
f 19/24/88 18/7/89 27/17/90 24/16/91
f 4/38/92 17/37/93 19/44/94
f 13/9/95 1/32/96 2/34/97 3/19/98
f 23/6/99 19/45/100 24/4/101
f 11/23/102 20/12/103 9/46/104 16/43/105
f 2/41/106 16/45/107 15/31/108
f 16/47/109 5/30/110 15/31/111
f 3/19/112 25/22/113 27/17/114
f 18/7/115 3/19/116 27/17/117
f 12/8/118 11/23/119 16/43/120
f 27/17/121 25/22/122 7/1/123 22/18/124
f 2/34/125 1/32/126 16/47/127
f 20/12/128 14/28/129 9/15/130
f 4/48/131 23/49/132 26/50/133
f 4/48/134 19/24/135 23/6/136
f 16/43/137 9/46/138 10/25/139 5/30/140
