# 3ds Max Wavefront OBJ Exporter v0.97b - (c)2007 guruware
# File Created: 16.02.2024 00:17:33

#
# object LampGlobe
#

v  -0.0006 0.0509 0.0001
v  -0.0066 0.0504 0.0026
v  -0.0031 0.0504 0.0062
v  -0.0111 0.0063 0.0256
v  -0.0084 -0.0052 0.0191
v  0.0073 -0.0052 0.0191
v  0.0100 0.0063 0.0256
v  -0.0069 -0.0161 0.0155
v  -0.0065 -0.0267 0.0146
v  0.0054 -0.0267 0.0146
v  0.0058 -0.0161 0.0155
v  -0.0064 -0.0401 0.0142
v  0.0053 -0.0401 0.0142
v  -0.0065 -0.0267 -0.0144
v  0.0054 -0.0267 -0.0144
v  0.0053 -0.0401 -0.0140
v  -0.0064 -0.0401 -0.0140
v  0.0139 -0.0267 0.0061
v  0.0135 -0.0401 0.0060
v  -0.0150 -0.0267 0.0061
v  -0.0146 -0.0401 0.0060
v  0.0139 -0.0267 -0.0059
v  0.0135 -0.0401 -0.0057
v  -0.0150 -0.0267 -0.0059
v  -0.0146 -0.0401 -0.0057
v  0.0058 -0.0161 -0.0153
v  -0.0069 -0.0161 -0.0153
v  0.0076 0.0435 0.0197
v  0.0096 0.0374 0.0247
v  0.0240 0.0374 0.0103
v  0.0190 0.0435 0.0082
v  0.0149 -0.0161 -0.0063
v  -0.0160 -0.0161 0.0065
v  -0.0160 -0.0161 -0.0063
v  0.0149 -0.0161 0.0065
v  -0.0195 -0.0052 0.0080
v  -0.0260 0.0063 0.0107
v  -0.0260 0.0063 -0.0104
v  -0.0195 -0.0052 -0.0077
v  0.0184 -0.0052 -0.0077
v  0.0184 -0.0052 0.0080
v  -0.0201 0.0435 0.0082
v  -0.0087 0.0435 0.0197
v  -0.0060 0.0480 0.0133
v  -0.0138 0.0480 0.0056
v  0.0076 0.0435 -0.0195
v  0.0096 0.0374 -0.0244
v  -0.0107 0.0374 -0.0244
v  -0.0087 0.0435 -0.0195
v  0.0249 0.0063 0.0107
v  0.0249 0.0063 -0.0104
v  0.0274 0.0181 -0.0115
v  0.0274 0.0181 0.0117
v  0.0190 0.0435 -0.0080
v  0.0240 0.0374 -0.0101
v  -0.0251 0.0374 0.0103
v  -0.0201 0.0435 -0.0080
v  -0.0251 0.0374 -0.0101
v  -0.0107 0.0374 0.0247
v  0.0127 0.0480 0.0056
v  0.0049 0.0480 0.0133
v  -0.0138 0.0480 -0.0054
v  -0.0060 0.0480 -0.0131
v  0.0049 0.0480 -0.0131
v  0.0127 0.0480 -0.0054
v  0.0020 0.0504 0.0062
v  -0.0285 0.0181 0.0117
v  -0.0285 0.0181 -0.0115
v  -0.0111 0.0063 -0.0253
v  -0.0121 0.0181 -0.0278
v  -0.0279 0.0288 0.0115
v  -0.0279 0.0288 -0.0112
v  0.0110 0.0181 -0.0278
v  0.0108 0.0288 -0.0273
v  0.0268 0.0288 -0.0112
v  -0.0084 -0.0052 -0.0188
v  0.0100 0.0063 -0.0253
v  0.0110 0.0181 0.0280
v  0.0108 0.0288 0.0275
v  -0.0119 0.0288 0.0275
v  -0.0121 0.0181 0.0280
v  0.0073 -0.0052 -0.0188
v  0.0268 0.0288 0.0115
v  -0.0119 0.0288 -0.0273
v  -0.0066 0.0504 -0.0024
v  -0.0031 0.0504 -0.0059
v  0.0020 0.0504 -0.0059
v  0.0055 0.0504 -0.0024
v  0.0055 0.0504 0.0026
# 89 vertices

vn -0.0006 1.0000 -0.0005
vn -0.1973 0.9769 0.0814
vn -0.0847 0.9764 0.1986
vn -0.3569 -0.3604 0.8618
vn -0.3429 -0.4412 0.8293
vn 0.3433 -0.4418 0.8288
vn 0.3433 -0.4418 0.8288
vn 0.3563 -0.3609 0.8619
vn -0.3569 -0.3604 0.8618
vn -0.3706 -0.2231 0.9016
vn -0.3804 -0.0628 0.9227
vn 0.3812 -0.0620 0.9224
vn 0.3812 -0.0620 0.9224
vn 0.3721 -0.2230 0.9010
vn -0.3706 -0.2231 0.9016
vn 0.3812 -0.0620 0.9224
vn -0.3804 -0.0628 0.9227
vn -0.3835 -0.0304 0.9230
vn -0.3835 -0.0304 0.9230
vn 0.3835 -0.0304 0.9230
vn 0.3812 -0.0620 0.9224
vn -0.3818 -0.0627 -0.9221
vn 0.3810 -0.0635 -0.9224
vn 0.3864 -0.0304 -0.9218
vn 0.3864 -0.0304 -0.9218
vn -0.3864 -0.0304 -0.9218
vn -0.3818 -0.0627 -0.9221
vn 0.9217 -0.0656 0.3823
vn 0.3812 -0.0620 0.9224
vn 0.3835 -0.0304 0.9230
vn 0.3835 -0.0304 0.9230
vn 0.9230 -0.0304 0.3835
vn 0.9217 -0.0656 0.3823
vn -0.3804 -0.0628 0.9227
vn -0.9220 -0.0664 0.3815
vn -0.9230 -0.0304 0.3835
vn -0.9230 -0.0304 0.3835
vn -0.3835 -0.0304 0.9230
vn -0.3804 -0.0628 0.9227
vn 0.3810 -0.0635 -0.9224
vn 0.9216 -0.0678 -0.3822
vn 0.9243 -0.0317 -0.3805
vn 0.9243 -0.0317 -0.3805
vn 0.3864 -0.0304 -0.9218
vn 0.3810 -0.0635 -0.9224
vn -0.9220 -0.0664 0.3815
vn -0.9213 -0.0670 -0.3830
vn -0.9243 -0.0317 -0.3805
vn -0.9243 -0.0317 -0.3805
vn -0.9230 -0.0304 0.3835
vn -0.9220 -0.0664 0.3815
vn 0.9216 -0.0678 -0.3822
vn 0.9217 -0.0656 0.3823
vn 0.9230 -0.0304 0.3835
vn 0.9230 -0.0304 0.3835
vn 0.9243 -0.0317 -0.3805
vn 0.9216 -0.0678 -0.3822
vn 0.3715 -0.2183 -0.9024
vn 0.3810 -0.0635 -0.9224
vn -0.3818 -0.0627 -0.9221
vn -0.3818 -0.0627 -0.9221
vn -0.3720 -0.2190 -0.9020
vn 0.3715 -0.2183 -0.9024
vn 0.2583 0.7411 0.6198
vn 0.3330 0.4877 0.8070
vn 0.8064 0.4886 0.3331
vn 0.8064 0.4886 0.3331
vn 0.6219 0.7403 0.2553
vn 0.2583 0.7411 0.6198
vn 0.3810 -0.0635 -0.9224
vn 0.3715 -0.2183 -0.9024
vn 0.9001 -0.2209 -0.3756
vn 0.9001 -0.2209 -0.3756
vn 0.9216 -0.0678 -0.3822
vn 0.3810 -0.0635 -0.9224
vn -0.3804 -0.0628 0.9227
vn -0.3706 -0.2231 0.9016
vn -0.9004 -0.2233 0.3735
vn -0.9004 -0.2233 0.3735
vn -0.9220 -0.0664 0.3815
vn -0.3804 -0.0628 0.9227
vn 0.3721 -0.2230 0.9010
vn 0.3433 -0.4418 0.8288
vn -0.3429 -0.4412 0.8293
vn -0.3429 -0.4412 0.8293
vn -0.3706 -0.2231 0.9016
vn 0.3721 -0.2230 0.9010
vn -0.8997 -0.2216 -0.3761
vn -0.9213 -0.0670 -0.3830
vn -0.9220 -0.0664 0.3815
vn -0.9220 -0.0664 0.3815
vn -0.9004 -0.2233 0.3735
vn -0.8997 -0.2216 -0.3761
vn 0.8998 -0.2233 0.3750
vn 0.9217 -0.0656 0.3823
vn 0.9216 -0.0678 -0.3822
vn 0.9216 -0.0678 -0.3822
vn 0.9001 -0.2209 -0.3756
vn 0.8998 -0.2233 0.3750
vn -0.3720 -0.2190 -0.9020
vn -0.3818 -0.0627 -0.9221
vn -0.9213 -0.0670 -0.3830
vn -0.9213 -0.0670 -0.3830
vn -0.8997 -0.2216 -0.3761
vn -0.3720 -0.2190 -0.9020
vn 0.3721 -0.2230 0.9010
vn 0.3812 -0.0620 0.9224
vn 0.9217 -0.0656 0.3823
vn 0.9217 -0.0656 0.3823
vn 0.8998 -0.2233 0.3750
vn 0.3721 -0.2230 0.9010
vn -0.8301 -0.4387 0.3442
vn -0.8602 -0.3636 0.3575
vn -0.8602 -0.3656 -0.3556
vn -0.8602 -0.3656 -0.3556
vn -0.8305 -0.4381 -0.3441
vn -0.8301 -0.4387 0.3442
vn 0.8998 -0.2233 0.3750
vn 0.9001 -0.2209 -0.3756
vn 0.8305 -0.4381 -0.3441
vn 0.8305 -0.4381 -0.3441
vn 0.8296 -0.4394 0.3446
vn 0.8998 -0.2233 0.3750
vn -0.8997 -0.2216 -0.3761
vn -0.9004 -0.2233 0.3735
vn -0.8301 -0.4387 0.3442
vn -0.8301 -0.4387 0.3442
vn -0.8305 -0.4381 -0.3441
vn -0.8997 -0.2216 -0.3761
vn -0.6212 0.7405 0.2566
vn -0.2597 0.7412 0.6191
vn -0.1727 0.8919 0.4178
vn -0.1727 0.8919 0.4178
vn -0.4197 0.8904 0.1759
vn -0.6212 0.7405 0.2566
vn 0.2604 0.7378 -0.6227
vn 0.3343 0.4889 -0.8057
vn -0.3322 0.4891 -0.8065
vn -0.3322 0.4891 -0.8065
vn -0.2586 0.7385 -0.6227
vn 0.2604 0.7378 -0.6227
vn 0.8603 -0.3641 0.3568
vn 0.8601 -0.3651 -0.3562
vn 0.9203 -0.0806 -0.3828
vn 0.9203 -0.0806 -0.3828
vn 0.9209 -0.0795 0.3817
vn 0.8603 -0.3641 0.3568
vn 0.3343 0.4889 -0.8057
vn 0.2604 0.7378 -0.6227
vn 0.6212 0.7402 -0.2575
vn 0.6212 0.7402 -0.2575
vn 0.8058 0.4871 -0.3367
vn 0.3343 0.4889 -0.8057
vn -0.8060 0.4890 0.3334
vn -0.6212 0.7405 0.2566
vn -0.6212 0.7408 -0.2556
vn -0.6212 0.7408 -0.2556
vn -0.8066 0.4873 -0.3345
vn -0.8060 0.4890 0.3334
vn -0.3333 0.4881 0.8066
vn -0.2597 0.7412 0.6191
vn -0.6212 0.7405 0.2566
vn -0.6212 0.7405 0.2566
vn -0.8060 0.4890 0.3334
vn -0.3333 0.4881 0.8066
vn 0.8058 0.4871 -0.3367
vn 0.6212 0.7402 -0.2575
vn 0.6219 0.7403 0.2553
vn 0.6219 0.7403 0.2553
vn 0.8064 0.4886 0.3331
vn 0.8058 0.4871 -0.3367
vn -0.8066 0.4873 -0.3345
vn -0.6212 0.7408 -0.2556
vn -0.2586 0.7385 -0.6227
vn -0.2586 0.7385 -0.6227
vn -0.3322 0.4891 -0.8065
vn -0.8066 0.4873 -0.3345
vn 0.2583 0.7411 0.6198
vn 0.6219 0.7403 0.2553
vn 0.4196 0.8909 0.1739
vn 0.4196 0.8909 0.1739
vn 0.1707 0.8924 0.4177
vn 0.2583 0.7411 0.6198
vn -0.1727 0.8919 0.4178
vn -0.0847 0.9764 0.1986
vn -0.1973 0.9769 0.0814
vn -0.1973 0.9769 0.0814
vn -0.4197 0.8904 0.1759
vn -0.1727 0.8919 0.4178
vn -0.6212 0.7408 -0.2556
vn -0.6212 0.7405 0.2566
vn -0.4197 0.8904 0.1759
vn -0.4197 0.8904 0.1759
vn -0.4197 0.8904 -0.1759
vn -0.6212 0.7408 -0.2556
vn -0.6212 0.7408 -0.2556
vn -0.4197 0.8904 -0.1759
vn -0.1721 0.8924 -0.4172
vn -0.1721 0.8924 -0.4172
vn -0.2586 0.7385 -0.6227
vn -0.6212 0.7408 -0.2556
vn 0.2604 0.7378 -0.6227
vn -0.2586 0.7385 -0.6227
vn -0.1721 0.8924 -0.4172
vn -0.1721 0.8924 -0.4172
vn 0.1721 0.8923 -0.4173
vn 0.2604 0.7378 -0.6227
vn 0.6212 0.7402 -0.2575
vn 0.2604 0.7378 -0.6227
vn 0.1721 0.8923 -0.4173
vn 0.1721 0.8923 -0.4173
vn 0.4199 0.8904 -0.1759
vn 0.6212 0.7402 -0.2575
vn 0.2583 0.7411 0.6198
vn 0.1707 0.8924 0.4177
vn -0.1727 0.8919 0.4178
vn -0.1727 0.8919 0.4178
vn -0.2597 0.7412 0.6191
vn 0.2583 0.7411 0.6198
vn -0.0847 0.9764 0.1986
vn -0.1727 0.8919 0.4178
vn 0.1707 0.8924 0.4177
vn 0.1707 0.8924 0.4177
vn 0.0847 0.9765 0.1984
vn -0.0847 0.9764 0.1986
vn 0.3721 -0.2230 0.9010
vn 0.8998 -0.2233 0.3750
vn 0.8296 -0.4394 0.3446
vn 0.8296 -0.4394 0.3446
vn 0.3433 -0.4418 0.8288
vn 0.3721 -0.2230 0.9010
vn -0.8602 -0.3636 0.3575
vn -0.9208 -0.0804 0.3815
vn -0.9202 -0.0792 -0.3834
vn -0.9202 -0.0792 -0.3834
vn -0.8602 -0.3656 -0.3556
vn -0.8602 -0.3636 0.3575
vn -0.3562 -0.3645 -0.8604
vn -0.8602 -0.3656 -0.3556
vn -0.9202 -0.0792 -0.3834
vn -0.9202 -0.0792 -0.3834
vn -0.3807 -0.0832 -0.9210
vn -0.3562 -0.3645 -0.8604
vn -0.9208 -0.0804 0.3815
vn -0.9063 0.1920 0.3764
vn -0.9074 0.1910 -0.3743
vn -0.9074 0.1910 -0.3743
vn -0.9202 -0.0792 -0.3834
vn -0.9208 -0.0804 0.3815
vn 0.9203 -0.0806 -0.3828
vn 0.3800 -0.0846 -0.9211
vn 0.3758 0.1930 -0.9064
vn 0.3758 0.1930 -0.9064
vn 0.9072 0.1929 -0.3739
vn 0.9203 -0.0806 -0.3828
vn 0.8603 -0.3641 0.3568
vn 0.8296 -0.4394 0.3446
vn 0.8305 -0.4381 -0.3441
vn 0.8305 -0.4381 -0.3441
vn 0.8601 -0.3651 -0.3562
vn 0.8603 -0.3641 0.3568
vn -0.8305 -0.4381 -0.3441
vn -0.8602 -0.3656 -0.3556
vn -0.3562 -0.3645 -0.8604
vn -0.3562 -0.3645 -0.8604
vn -0.3442 -0.4387 -0.8301
vn -0.8305 -0.4381 -0.3441
vn 0.6212 0.7402 -0.2575
vn 0.4199 0.8904 -0.1759
vn 0.4196 0.8909 0.1739
vn 0.4196 0.8909 0.1739
vn 0.6219 0.7403 0.2553
vn 0.6212 0.7402 -0.2575
vn 0.8601 -0.3651 -0.3562
vn 0.3568 -0.3641 -0.8603
vn 0.3800 -0.0846 -0.9211
vn 0.3800 -0.0846 -0.9211
vn 0.9203 -0.0806 -0.3828
vn 0.8601 -0.3651 -0.3562
vn 0.3806 -0.0802 0.9213
vn 0.3763 0.1877 0.9073
vn -0.3757 0.1882 0.9074
vn -0.3757 0.1882 0.9074
vn -0.3805 -0.0811 0.9212
vn 0.3806 -0.0802 0.9213
vn 0.3715 -0.2183 -0.9024
vn 0.3442 -0.4387 -0.8301
vn 0.8305 -0.4381 -0.3441
vn 0.8305 -0.4381 -0.3441
vn 0.9001 -0.2209 -0.3756
vn 0.3715 -0.2183 -0.9024
vn 0.3568 -0.3641 -0.8603
vn -0.3562 -0.3645 -0.8604
vn -0.3807 -0.0832 -0.9210
vn -0.3807 -0.0832 -0.9210
vn 0.3800 -0.0846 -0.9211
vn 0.3568 -0.3641 -0.8603
vn -0.9208 -0.0804 0.3815
vn -0.3805 -0.0811 0.9212
vn -0.3757 0.1882 0.9074
vn -0.3757 0.1882 0.9074
vn -0.9063 0.1920 0.3764
vn -0.9208 -0.0804 0.3815
vn 0.3806 -0.0802 0.9213
vn 0.9209 -0.0795 0.3817
vn 0.9062 0.1915 0.3770
vn 0.9062 0.1915 0.3770
vn 0.3763 0.1877 0.9073
vn 0.3806 -0.0802 0.9213
vn -0.9004 -0.2233 0.3735
vn -0.3706 -0.2231 0.9016
vn -0.3429 -0.4412 0.8293
vn -0.3429 -0.4412 0.8293
vn -0.8301 -0.4387 0.3442
vn -0.9004 -0.2233 0.3735
vn -0.8602 -0.3636 0.3575
vn -0.3569 -0.3604 0.8618
vn -0.3805 -0.0811 0.9212
vn -0.3805 -0.0811 0.9212
vn -0.9208 -0.0804 0.3815
vn -0.8602 -0.3636 0.3575
vn 0.3800 -0.0846 -0.9211
vn -0.3807 -0.0832 -0.9210
vn -0.3762 0.1911 -0.9066
vn -0.3762 0.1911 -0.9066
vn 0.3758 0.1930 -0.9064
vn 0.3800 -0.0846 -0.9211
vn -0.3569 -0.3604 0.8618
vn 0.3563 -0.3609 0.8619
vn 0.3806 -0.0802 0.9213
vn 0.3806 -0.0802 0.9213
vn -0.3805 -0.0811 0.9212
vn -0.3569 -0.3604 0.8618
vn 0.3763 0.1877 0.9073
vn 0.3330 0.4877 0.8070
vn -0.3333 0.4881 0.8066
vn -0.3333 0.4881 0.8066
vn -0.3757 0.1882 0.9074
vn 0.3763 0.1877 0.9073
vn 0.3563 -0.3609 0.8619
vn 0.8603 -0.3641 0.3568
vn 0.9209 -0.0795 0.3817
vn 0.9209 -0.0795 0.3817
vn 0.3806 -0.0802 0.9213
vn 0.3563 -0.3609 0.8619
vn 0.3563 -0.3609 0.8619
vn 0.3433 -0.4418 0.8288
vn 0.8296 -0.4394 0.3446
vn 0.8296 -0.4394 0.3446
vn 0.8603 -0.3641 0.3568
vn 0.3563 -0.3609 0.8619
vn -0.3333 0.4881 0.8066
vn 0.3330 0.4877 0.8070
vn 0.2583 0.7411 0.6198
vn 0.2583 0.7411 0.6198
vn -0.2597 0.7412 0.6191
vn -0.3333 0.4881 0.8066
vn -0.3807 -0.0832 -0.9210
vn -0.9202 -0.0792 -0.3834
vn -0.9074 0.1910 -0.3743
vn -0.9074 0.1910 -0.3743
vn -0.3762 0.1911 -0.9066
vn -0.3807 -0.0832 -0.9210
vn 0.3715 -0.2183 -0.9024
vn -0.3720 -0.2190 -0.9020
vn -0.3442 -0.4387 -0.8301
vn -0.3442 -0.4387 -0.8301
vn 0.3442 -0.4387 -0.8301
vn 0.3715 -0.2183 -0.9024
vn 0.9209 -0.0795 0.3817
vn 0.9203 -0.0806 -0.3828
vn 0.9072 0.1929 -0.3739
vn 0.9072 0.1929 -0.3739
vn 0.9062 0.1915 0.3770
vn 0.9209 -0.0795 0.3817
vn 0.3763 0.1877 0.9073
vn 0.9062 0.1915 0.3770
vn 0.8064 0.4886 0.3331
vn 0.8064 0.4886 0.3331
vn 0.3330 0.4877 0.8070
vn 0.3763 0.1877 0.9073
vn -0.3762 0.1911 -0.9066
vn -0.9074 0.1910 -0.3743
vn -0.8066 0.4873 -0.3345
vn -0.8066 0.4873 -0.3345
vn -0.3322 0.4891 -0.8065
vn -0.3762 0.1911 -0.9066
vn 0.9062 0.1915 0.3770
vn 0.9072 0.1929 -0.3739
vn 0.8058 0.4871 -0.3367
vn 0.8058 0.4871 -0.3367
vn 0.8064 0.4886 0.3331
vn 0.9062 0.1915 0.3770
vn -0.8060 0.4890 0.3334
vn -0.8066 0.4873 -0.3345
vn -0.9074 0.1910 -0.3743
vn -0.9074 0.1910 -0.3743
vn -0.9063 0.1920 0.3764
vn -0.8060 0.4890 0.3334
vn 0.9072 0.1929 -0.3739
vn 0.3758 0.1930 -0.9064
vn 0.3343 0.4889 -0.8057
vn 0.3343 0.4889 -0.8057
vn 0.8058 0.4871 -0.3367
vn 0.9072 0.1929 -0.3739
vn 0.3758 0.1930 -0.9064
vn -0.3762 0.1911 -0.9066
vn -0.3322 0.4891 -0.8065
vn -0.3322 0.4891 -0.8065
vn 0.3343 0.4889 -0.8057
vn 0.3758 0.1930 -0.9064
vn -0.9063 0.1920 0.3764
vn -0.3757 0.1882 0.9074
vn -0.3333 0.4881 0.8066
vn -0.3333 0.4881 0.8066
vn -0.8060 0.4890 0.3334
vn -0.9063 0.1920 0.3764
vn -0.3720 -0.2190 -0.9020
vn -0.8997 -0.2216 -0.3761
vn -0.8305 -0.4381 -0.3441
vn -0.8305 -0.4381 -0.3441
vn -0.3442 -0.4387 -0.8301
vn -0.3720 -0.2190 -0.9020
vn 0.3442 -0.4387 -0.8301
vn 0.3568 -0.3641 -0.8603
vn 0.8601 -0.3651 -0.3562
vn 0.8601 -0.3651 -0.3562
vn 0.8305 -0.4381 -0.3441
vn 0.3442 -0.4387 -0.8301
vn -0.8602 -0.3636 0.3575
vn -0.8301 -0.4387 0.3442
vn -0.3429 -0.4412 0.8293
vn -0.3429 -0.4412 0.8293
vn -0.3569 -0.3604 0.8618
vn -0.8602 -0.3636 0.3575
vn 0.3568 -0.3641 -0.8603
vn 0.3442 -0.4387 -0.8301
vn -0.3442 -0.4387 -0.8301
vn -0.3442 -0.4387 -0.8301
vn -0.3562 -0.3645 -0.8604
vn 0.3568 -0.3641 -0.8603
vn -0.1973 0.9769 0.0814
vn -0.1968 0.9770 -0.0820
vn -0.4197 0.8904 -0.1759
vn -0.4197 0.8904 -0.1759
vn -0.4197 0.8904 0.1759
vn -0.1973 0.9769 0.0814
vn -0.1968 0.9770 -0.0820
vn -0.0824 0.9769 -0.1972
vn -0.1721 0.8924 -0.4172
vn -0.1721 0.8924 -0.4172
vn -0.4197 0.8904 -0.1759
vn -0.1968 0.9770 -0.0820
vn -0.0824 0.9769 -0.1972
vn 0.0818 0.9770 -0.1970
vn 0.1721 0.8923 -0.4173
vn 0.1721 0.8923 -0.4173
vn -0.1721 0.8924 -0.4172
vn -0.0824 0.9769 -0.1972
vn 0.0818 0.9770 -0.1970
vn 0.1964 0.9772 -0.0812
vn 0.4199 0.8904 -0.1759
vn 0.4199 0.8904 -0.1759
vn 0.1721 0.8923 -0.4173
vn 0.0818 0.9770 -0.1970
vn 0.1964 0.9772 -0.0812
vn 0.1970 0.9770 0.0812
vn 0.4196 0.8909 0.1739
vn 0.4196 0.8909 0.1739
vn 0.4199 0.8904 -0.1759
vn 0.1964 0.9772 -0.0812
vn 0.1970 0.9770 0.0812
vn 0.0847 0.9765 0.1984
vn 0.1707 0.8924 0.4177
vn 0.1707 0.8924 0.4177
vn 0.4196 0.8909 0.1739
vn 0.1970 0.9770 0.0812
vn -0.0006 1.0000 -0.0005
vn -0.1968 0.9770 -0.0820
vn -0.1973 0.9769 0.0814
vn -0.0006 1.0000 -0.0005
vn -0.0824 0.9769 -0.1972
vn -0.1968 0.9770 -0.0820
vn -0.0006 1.0000 -0.0005
vn 0.0818 0.9770 -0.1970
vn -0.0824 0.9769 -0.1972
vn -0.0006 1.0000 -0.0005
vn 0.1964 0.9772 -0.0812
vn 0.0818 0.9770 -0.1970
vn -0.0006 1.0000 -0.0005
vn 0.1970 0.9770 0.0812
vn 0.1964 0.9772 -0.0812
vn -0.0006 1.0000 -0.0005
vn 0.0847 0.9765 0.1984
vn 0.1970 0.9770 0.0812
vn 0.0847 0.9765 0.1984
vn -0.0006 1.0000 -0.0005
vn -0.0847 0.9764 0.1986
vn -0.9243 -0.0317 -0.3805
vn -0.9213 -0.0670 -0.3830
vn -0.3818 -0.0627 -0.9221
vn -0.3818 -0.0627 -0.9221
vn -0.3864 -0.0304 -0.9218
vn -0.9243 -0.0317 -0.3805
# 504 vertex normals

vt 0.5941 0.0510 0.0000
vt 0.5995 0.0573 0.0000
vt 0.5941 0.0590 0.0000
vt 0.5941 0.1081 0.0000
vt 0.5944 0.1229 0.0000
vt 0.5746 0.1231 0.0000
vt 0.5736 0.1080 0.0000
vt 0.5940 0.1383 0.0000
vt 0.5941 0.1533 0.0000
vt 0.5772 0.1540 0.0000
vt 0.5757 0.1390 0.0000
vt 0.5941 0.1720 0.0000
vt 0.5783 0.1725 0.0000
vt 0.0609 0.2827 0.0000
vt 0.0777 0.2820 0.0000
vt 0.0778 0.3005 0.0000
vt 0.0622 0.3011 0.0000
vt 0.5606 0.1559 0.0000
vt 0.5626 0.1739 0.0000
vt 0.6110 0.1539 0.0000
vt 0.6099 0.1725 0.0000
vt 0.0946 0.2826 0.0000
vt 0.0934 0.3009 0.0000
vt 0.6276 0.1557 0.0000
vt 0.6257 0.1739 0.0000
vt 0.1110 0.2845 0.0000
vt 0.1091 0.3025 0.0000
vt 0.0777 0.2669 0.0000
vt 0.0597 0.2679 0.0000
vt 0.5802 0.0718 0.0000
vt 0.5775 0.0786 0.0000
vt 0.5583 0.0685 0.0000
vt 0.5656 0.0610 0.0000
vt 0.0959 0.2676 0.0000
vt 0.6124 0.1388 0.0000
vt 0.6299 0.1415 0.0000
vt 0.1135 0.2704 0.0000
vt 0.0447 0.2845 0.0000
vt 0.0423 0.2705 0.0000
vt 0.5582 0.1417 0.0000
vt 0.6138 0.1237 0.0000
vt 0.6144 0.1078 0.0000
vt 0.6400 0.1086 0.0000
vt 0.6343 0.1263 0.0000
vt 0.0975 0.2523 0.0000
vt 0.1182 0.2553 0.0000
vt 0.6080 0.0718 0.0000
vt 0.5941 0.0746 0.0000
vt 0.5941 0.0674 0.0000
vt 0.6044 0.0646 0.0000
vt 0.0766 0.2033 0.0000
vt 0.0767 0.2098 0.0000
vt 0.0601 0.2079 0.0000
vt 0.0626 0.2009 0.0000
vt 0.1233 0.2368 0.0000
vt 0.0980 0.2365 0.0000
vt 0.0971 0.2244 0.0000
vt 0.1237 0.2199 0.0000
vt 0.0905 0.2000 0.0000
vt 0.0933 0.2070 0.0000
vt 0.6105 0.0788 0.0000
vt 0.6222 0.0615 0.0000
vt 0.6297 0.0684 0.0000
vt 0.5940 0.0810 0.0000
vt 0.1048 0.1890 0.0000
vt 0.1126 0.1959 0.0000
vt 0.0404 0.1983 0.0000
vt 0.0475 0.1905 0.0000
vt 0.5749 0.0556 0.0000
vt 0.5837 0.0646 0.0000
vt 0.6133 0.0556 0.0000
vt 0.0567 0.1848 0.0000
vt 0.0659 0.1936 0.0000
vt 0.0763 0.1960 0.0000
vt 0.0866 0.1931 0.0000
vt 0.5887 0.0573 0.0000
vt 0.5536 0.1266 0.0000
vt 0.6140 0.0962 0.0000
vt 0.6399 0.0919 0.0000
vt 0.0568 0.2373 0.0000
vt 0.0323 0.2385 0.0000
vt 0.0311 0.2223 0.0000
vt 0.0572 0.2255 0.0000
vt 0.6126 0.0866 0.0000
vt 0.6358 0.0784 0.0000
vt 0.0772 0.2261 0.0000
vt 0.0769 0.2171 0.0000
vt 0.0955 0.2148 0.0000
vt 0.0379 0.2559 0.0000
vt 0.0581 0.2522 0.0000
vt 0.0954 0.1832 0.0000
vt 0.0773 0.2370 0.0000
vt 0.5740 0.0961 0.0000
vt 0.5755 0.0865 0.0000
vt 0.5940 0.0883 0.0000
vt 0.5940 0.0972 0.0000
vt 0.0778 0.2517 0.0000
vt 0.5483 0.0918 0.0000
vt 0.5523 0.0784 0.0000
vt 0.0583 0.2159 0.0000
vt 0.5482 0.1084 0.0000
vt 0.0346 0.2086 0.0000
vt 0.1192 0.2060 0.0000
vt 0.6029 0.0520 0.0000
vt 0.0671 0.1809 0.0000
vt 0.0707 0.1861 0.0000
vt 0.0762 0.1877 0.0000
vt 0.0815 0.1857 0.0000
vt 0.0848 0.1804 0.0000
vt 0.5853 0.0520 0.0000
vt 0.0759 0.1796 0.0000
vt 0.0465 0.3025 0.0000
# 112 texture coords

g LampGlobe
f 1/1/1 2/2/2 3/3/3 
f 4/4/4 5/5/5 6/6/6 
f 6/6/7 7/7/8 4/4/9 
f 8/8/10 9/9/11 10/10/12 
f 10/10/13 11/11/14 8/8/15 
f 10/10/16 9/9/17 12/12/18 
f 12/12/19 13/13/20 10/10/21 
f 14/14/22 15/15/23 16/16/24 
f 16/16/25 17/17/26 14/14/27 
f 18/18/28 10/10/29 13/13/30 
f 13/13/31 19/19/32 18/18/33 
f 9/9/34 20/20/35 21/21/36 
f 21/21/37 12/12/38 9/9/39 
f 15/15/40 22/22/41 23/23/42 
f 23/23/43 16/16/44 15/15/45 
f 20/20/46 24/24/47 25/25/48 
f 25/25/49 21/21/50 20/20/51 
f 22/22/52 18/26/53 19/27/54 
f 19/27/55 23/23/56 22/22/57 
f 26/28/58 15/15/59 14/14/60 
f 14/14/61 27/29/62 26/28/63 
f 28/30/64 29/31/65 30/32/66 
f 30/32/67 31/33/68 28/30/69 
f 15/15/70 26/28/71 32/34/72 
f 32/34/73 22/22/74 15/15/75 
f 9/9/76 8/8/77 33/35/78 
f 33/35/79 20/20/80 9/9/81 
f 11/11/82 6/6/83 5/5/84 
f 5/5/85 8/8/86 11/11/87 
f 34/36/88 24/24/89 20/20/90 
f 20/20/91 33/35/92 34/36/93 
f 35/37/94 18/26/95 22/22/96 
f 22/22/97 32/34/98 35/37/99 
f 27/29/100 14/14/101 24/38/102 
f 24/38/103 34/39/104 27/29/105 
f 11/11/106 10/10/107 18/18/108 
f 18/18/109 35/40/110 11/11/111 
f 36/41/112 37/42/113 38/43/114 
f 38/43/115 39/44/116 36/41/117 
f 35/37/118 32/34/119 40/45/120 
f 40/45/121 41/46/122 35/37/123 
f 34/36/124 33/35/125 36/41/126 
f 36/41/127 39/44/128 34/36/129 
f 42/47/130 43/48/131 44/49/132 
f 44/49/133 45/50/134 42/47/135 
f 46/51/136 47/52/137 48/53/138 
f 48/53/139 49/54/140 46/51/141 
f 50/55/142 51/56/143 52/57/144 
f 52/57/145 53/58/146 50/55/147 
f 47/52/148 46/51/149 54/59/150 
f 54/59/151 55/60/152 47/52/153 
f 56/61/154 42/47/155 57/62/156 
f 57/62/157 58/63/158 56/61/159 
f 59/64/160 43/48/161 42/47/162 
f 42/47/163 56/61/164 59/64/165 
f 55/60/166 54/59/167 31/65/168 
f 31/65/169 30/66/170 55/60/171 
f 58/67/172 57/68/173 49/54/174 
f 49/54/175 48/53/176 58/67/177 
f 28/30/178 31/33/179 60/69/180 
f 60/69/181 61/70/182 28/30/183 
f 44/49/184 3/3/185 2/2/186 
f 2/2/187 45/50/188 44/49/189 
f 57/62/190 42/47/191 45/50/192 
f 45/50/193 62/71/194 57/62/195 
f 57/68/196 62/72/197 63/73/198 
f 63/73/199 49/54/200 57/68/201 
f 46/51/202 49/54/203 63/73/204 
f 63/73/205 64/74/206 46/51/207 
f 54/59/208 46/51/209 64/74/210 
f 64/74/211 65/75/212 54/59/213 
f 28/30/214 61/70/215 44/49/216 
f 44/49/217 43/48/218 28/30/219 
f 3/3/220 44/49/221 61/70/222 
f 61/70/223 66/76/224 3/3/225 
f 11/11/226 35/40/227 41/77/228 
f 41/77/229 6/6/230 11/11/231 
f 37/42/232 67/78/233 68/79/234 
f 68/79/235 38/43/236 37/42/237 
f 69/80/238 38/81/239 68/82/240 
f 68/82/241 70/83/242 69/80/243 
f 67/78/244 71/84/245 72/85/246 
f 72/85/247 68/79/248 67/78/249 
f 52/57/250 73/86/251 74/87/252 
f 74/87/253 75/88/254 52/57/255 
f 50/55/256 41/46/257 40/45/258 
f 40/45/259 51/56/260 50/55/261 
f 39/89/262 38/81/263 69/80/264 
f 69/80/265 76/90/266 39/89/267 
f 54/59/268 65/75/269 60/91/270 
f 60/91/271 31/65/272 54/59/273 
f 51/56/274 77/92/275 73/86/276 
f 73/86/277 52/57/278 51/56/279 
f 78/93/280 79/94/281 80/95/282 
f 80/95/283 81/96/284 78/93/285 
f 26/28/286 82/97/287 40/45/288 
f 40/45/289 32/34/290 26/28/291 
f 77/92/292 69/80/293 70/83/294 
f 70/83/295 73/86/296 77/92/297 
f 67/78/298 81/96/299 80/95/300 
f 80/95/301 71/84/302 67/78/303 
f 78/93/304 53/98/305 83/99/306 
f 83/99/307 79/94/308 78/93/309 
f 33/35/310 8/8/311 5/5/312 
f 5/5/313 36/41/314 33/35/315 
f 37/42/316 4/4/317 81/96/318 
f 81/96/319 67/78/320 37/42/321 
f 73/86/322 70/83/323 84/100/324 
f 84/100/325 74/87/326 73/86/327 
f 4/4/328 7/7/329 78/93/330 
f 78/93/331 81/96/332 4/4/333 
f 79/94/334 29/31/335 59/64/336 
f 59/64/337 80/95/338 79/94/339 
f 7/7/340 50/101/341 53/98/342 
f 53/98/343 78/93/344 7/7/345 
f 7/7/346 6/6/347 41/77/348 
f 41/77/349 50/101/350 7/7/351 
f 59/64/352 29/31/353 28/30/354 
f 28/30/355 43/48/356 59/64/357 
f 70/83/358 68/82/359 72/102/360 
f 72/102/361 84/100/362 70/83/363 
f 26/28/364 27/29/365 76/90/366 
f 76/90/367 82/97/368 26/28/369 
f 53/58/370 52/57/371 75/88/372 
f 75/88/373 83/103/374 53/58/375 
f 79/94/376 83/99/377 30/32/378 
f 30/32/379 29/31/380 79/94/381 
f 84/100/382 72/102/383 58/67/384 
f 58/67/385 48/53/386 84/100/387 
f 83/103/388 75/88/389 55/60/390 
f 55/60/391 30/66/392 83/103/393 
f 56/61/394 58/63/395 72/85/396 
f 72/85/397 71/84/398 56/61/399 
f 75/88/400 74/87/401 47/52/402 
f 47/52/403 55/60/404 75/88/405 
f 74/87/406 84/100/407 48/53/408 
f 48/53/409 47/52/410 74/87/411 
f 71/84/412 80/95/413 59/64/414 
f 59/64/415 56/61/416 71/84/417 
f 27/29/418 34/39/419 39/89/420 
f 39/89/421 76/90/422 27/29/423 
f 82/97/424 77/92/425 51/56/426 
f 51/56/427 40/45/428 82/97/429 
f 37/42/430 36/41/431 5/5/432 
f 5/5/433 4/4/434 37/42/435 
f 77/92/436 82/97/437 76/90/438 
f 76/90/439 69/80/440 77/92/441 
f 2/2/442 85/104/443 62/71/444 
f 62/71/445 45/50/446 2/2/447 
f 85/105/448 86/106/449 63/73/450 
f 63/73/451 62/72/452 85/105/453 
f 86/106/454 87/107/455 64/74/456 
f 64/74/457 63/73/458 86/106/459 
f 87/107/460 88/108/461 65/75/462 
f 65/75/463 64/74/464 87/107/465 
f 88/108/466 89/109/467 60/91/468 
f 60/91/469 65/75/470 88/108/471 
f 89/110/472 66/76/473 61/70/474 
f 61/70/475 60/69/476 89/110/477 
f 1/1/478 85/104/479 2/2/480 
f 1/111/481 86/106/482 85/105/483 
f 1/111/484 87/107/485 86/106/486 
f 1/111/487 88/108/488 87/107/489 
f 1/111/490 89/109/491 88/108/492 
f 1/1/493 66/76/494 89/110/495 
f 66/76/496 1/1/497 3/3/498 
f 25/112/499 24/38/500 14/14/501 
f 14/14/502 17/17/503 25/112/504 
# 168 faces

