# 3ds Max Wavefront OBJ Exporter v0.97b - (c)2007 guruware
# File Created: 16.02.2024 01:11:37

#
# object separat_3
#

v  -0.0784 0.5674 0.0195
v  -0.0841 0.5674 -0.0001
v  -0.0955 0.5208 -0.0001
v  -0.0864 0.5208 0.0213
v  -0.0746 0.6112 0.0200
v  -0.0774 0.6028 -0.0001
v  -0.1418 0.4342 -0.0002
v  -0.1667 0.4040 -0.0002
v  -0.1469 0.3900 0.0363
v  -0.1247 0.4266 0.0307
v  -0.0577 0.4767 0.1000
v  -0.0709 0.4342 0.1228
v  -0.0421 0.5674 0.0729
v  -0.0478 0.5208 0.0828
v  -0.0618 0.5206 0.0642
v  -0.0562 0.5674 0.0581
v  -0.0748 0.5205 0.0431
v  -0.0686 0.5674 0.0396
v  -0.0388 0.6027 0.0670
v  -0.1072 0.4256 0.0618
v  -0.1262 0.3865 0.0726
v  -0.1051 0.3900 0.1089
v  -0.0891 0.4265 0.0926
v  -0.0669 0.6140 0.0385
v  -0.0835 0.4040 0.1444
v  -0.1154 0.4767 -0.0002
v  -0.0546 0.6111 0.0545
v  -0.0881 0.4730 0.0508
v  -0.0732 0.4731 0.0760
v  -0.1024 0.4733 0.0252
v  -0.1737 0.3951 -0.0003
v  -0.0869 0.3951 0.1504
v  -0.1085 0.3807 0.1128
v  -0.1303 0.3763 0.0750
v  -0.1520 0.3807 0.0373
v  -0.0656 0.6141 0.0379
v  -0.0733 0.6112 0.0195
v  -0.0761 0.6028 -0.0003
v  -0.0536 0.6112 0.0537
v  -0.0379 0.6029 0.0660
v  -0.1045 0.4247 0.0587
v  -0.0847 0.4728 0.0478
v  -0.0704 0.4731 0.0718
v  -0.0870 0.4257 0.0881
v  -0.1214 0.4254 0.0291
v  -0.1377 0.4328 -0.0001
v  -0.1109 0.4743 -0.0004
v  -0.0985 0.4728 0.0237
v  -0.0724 0.5652 0.0171
v  -0.0819 0.5179 0.0197
v  -0.0908 0.5175 -0.0005
v  -0.0779 0.5649 -0.0014
v  -0.0693 0.4333 0.1167
v  -0.0450 0.5178 0.0778
v  -0.0556 0.4748 0.0943
v  -0.0583 0.5178 0.0602
v  -0.0512 0.5648 0.0529
v  -0.0375 0.5642 0.0667
v  -0.0707 0.5176 0.0403
v  -0.0631 0.5652 0.0358
# 60 vertices

vn -0.9234 0.1394 0.3576
vn -0.9486 0.1686 0.2679
vn -0.8802 0.2801 0.3832
vn -0.8802 0.2801 0.3832
vn -0.8676 0.2620 0.4227
vn -0.9234 0.1394 0.3576
vn -0.9468 0.0913 0.3085
vn -0.9748 0.1289 0.1819
vn -0.9486 0.1686 0.2679
vn -0.9486 0.1686 0.2679
vn -0.9234 0.1394 0.3576
vn -0.9468 0.0913 0.3085
vn -0.7133 0.4800 0.5107
vn -0.6703 0.5179 0.5315
vn -0.7064 0.5090 0.4919
vn -0.7064 0.5090 0.4919
vn -0.7389 0.4716 0.4812
vn -0.7133 0.4800 0.5107
vn -0.8007 0.2621 0.5386
vn -0.7728 0.2810 0.5690
vn -0.7067 0.1693 0.6870
vn -0.7067 0.1693 0.6870
vn -0.7722 0.1399 0.6198
vn -0.8007 0.2621 0.5386
vn -0.8404 0.2439 0.4840
vn -0.8007 0.2621 0.5386
vn -0.7722 0.1399 0.6198
vn -0.7722 0.1399 0.6198
vn -0.8610 0.1127 0.4959
vn -0.8404 0.2439 0.4840
vn -0.7678 0.4634 0.4424
vn -0.7508 0.4994 0.4324
vn -0.7798 0.5093 0.3640
vn -0.7798 0.5093 0.3640
vn -0.7870 0.4719 0.3974
vn -0.7678 0.4634 0.4424
vn -0.7389 0.4716 0.4812
vn -0.7064 0.5090 0.4919
vn -0.7508 0.4994 0.4324
vn -0.7508 0.4994 0.4324
vn -0.7678 0.4634 0.4424
vn -0.7389 0.4716 0.4812
vn -0.7870 0.4719 0.3974
vn -0.7798 0.5093 0.3640
vn -0.7961 0.5182 0.3126
vn -0.7961 0.5182 0.3126
vn -0.7997 0.4804 0.3602
vn -0.7870 0.4719 0.3974
vn -0.8028 0.3761 0.4627
vn -0.7974 0.3882 0.4620
vn -0.8007 0.2621 0.5386
vn -0.8007 0.2621 0.5386
vn -0.8404 0.2439 0.4840
vn -0.8028 0.3761 0.4627
vn -0.7998 0.3880 0.4581
vn -0.8028 0.3761 0.4627
vn -0.8404 0.2439 0.4840
vn -0.8404 0.2439 0.4840
vn -0.8676 0.2620 0.4227
vn -0.7998 0.3880 0.4581
vn -0.8676 0.2620 0.4227
vn -0.8404 0.2439 0.4840
vn -0.8610 0.1127 0.4959
vn -0.8610 0.1127 0.4959
vn -0.9234 0.1394 0.3576
vn -0.8676 0.2620 0.4227
vn -0.7974 0.3882 0.4620
vn -0.7959 0.4006 0.4539
vn -0.7728 0.2810 0.5690
vn -0.7728 0.2810 0.5690
vn -0.8007 0.2621 0.5386
vn -0.7974 0.3882 0.4620
vn -0.8649 0.0589 0.4984
vn -0.9468 0.0913 0.3085
vn -0.9234 0.1394 0.3576
vn -0.9234 0.1394 0.3576
vn -0.8610 0.1127 0.4959
vn -0.8649 0.0589 0.4984
vn -0.7414 0.0919 0.6648
vn -0.8649 0.0589 0.4984
vn -0.8610 0.1127 0.4959
vn -0.8610 0.1127 0.4959
vn -0.7722 0.1399 0.6198
vn -0.7414 0.0919 0.6648
vn -0.6454 0.1298 0.7527
vn -0.7414 0.0919 0.6648
vn -0.7722 0.1399 0.6198
vn -0.7722 0.1399 0.6198
vn -0.7067 0.1693 0.6870
vn -0.6454 0.1298 0.7527
vn -0.8676 0.2620 0.4227
vn -0.8802 0.2801 0.3832
vn -0.7923 0.4003 0.4605
vn -0.7923 0.4003 0.4605
vn -0.7998 0.3880 0.4581
vn -0.8676 0.2620 0.4227
vn -0.7870 0.4719 0.3974
vn -0.7974 0.3882 0.4620
vn -0.8028 0.3761 0.4627
vn -0.8028 0.3761 0.4627
vn -0.7678 0.4634 0.4424
vn -0.7870 0.4719 0.3974
vn -0.7678 0.4634 0.4424
vn -0.8028 0.3761 0.4627
vn -0.7998 0.3880 0.4581
vn -0.7998 0.3880 0.4581
vn -0.7389 0.4716 0.4812
vn -0.7678 0.4634 0.4424
vn -0.7997 0.4804 0.3602
vn -0.7959 0.4006 0.4539
vn -0.7974 0.3882 0.4620
vn -0.7974 0.3882 0.4620
vn -0.7870 0.4719 0.3974
vn -0.7997 0.4804 0.3602
vn -0.7998 0.3880 0.4581
vn -0.7923 0.4003 0.4605
vn -0.7133 0.4800 0.5107
vn -0.7133 0.4800 0.5107
vn -0.7389 0.4716 0.4812
vn -0.7998 0.3880 0.4581
vn 0.7509 -0.4968 -0.4351
vn 0.7960 -0.3898 -0.4631
vn 0.7878 -0.4026 -0.4661
vn 0.7878 -0.4026 -0.4661
vn 0.7743 -0.5074 -0.3781
vn 0.7509 -0.4968 -0.4351
vn 0.7136 -0.5067 -0.4837
vn 0.6837 -0.5162 -0.5158
vn 0.7896 -0.4154 -0.4517
vn 0.7896 -0.4154 -0.4517
vn 0.7943 -0.4023 -0.4552
vn 0.7136 -0.5067 -0.4837
vn 0.7136 -0.5067 -0.4837
vn 0.7943 -0.4023 -0.4552
vn 0.7960 -0.3898 -0.4631
vn 0.7960 -0.3898 -0.4631
vn 0.7509 -0.4968 -0.4351
vn 0.7136 -0.5067 -0.4837
vn 0.9241 -0.1010 -0.3686
vn 0.8604 -0.2866 -0.4214
vn 0.8741 -0.3045 -0.3785
vn 0.8741 -0.3045 -0.3785
vn 0.9509 -0.1282 -0.2818
vn 0.9241 -0.1010 -0.3686
vn 0.8604 -0.2866 -0.4214
vn 0.7943 -0.4023 -0.4552
vn 0.7896 -0.4154 -0.4517
vn 0.7896 -0.4154 -0.4517
vn 0.8741 -0.3045 -0.3785
vn 0.8604 -0.2866 -0.4214
vn 0.7625 -0.5551 -0.3323
vn 0.7743 -0.5074 -0.3781
vn 0.7872 -0.5170 -0.3362
vn 0.7872 -0.5170 -0.3362
vn 0.7807 -0.5608 -0.2756
vn 0.7625 -0.5551 -0.3323
vn 0.7553 -0.3092 -0.5779
vn 0.7871 -0.2906 -0.5440
vn 0.7729 -0.0968 -0.6271
vn 0.7729 -0.0968 -0.6271
vn 0.7115 -0.1214 -0.6922
vn 0.7553 -0.3092 -0.5779
vn 0.7509 -0.4968 -0.4351
vn 0.7249 -0.5471 -0.4185
vn 0.6698 -0.5546 -0.4937
vn 0.6698 -0.5546 -0.4937
vn 0.7136 -0.5067 -0.4837
vn 0.7509 -0.4968 -0.4351
vn 0.7743 -0.5074 -0.3781
vn 0.7625 -0.5551 -0.3323
vn 0.7249 -0.5471 -0.4185
vn 0.7249 -0.5471 -0.4185
vn 0.7509 -0.4968 -0.4351
vn 0.7743 -0.5074 -0.3781
vn 0.7878 -0.4026 -0.4661
vn 0.7960 -0.3898 -0.4631
vn 0.8305 -0.2712 -0.4865
vn 0.8305 -0.2712 -0.4865
vn 0.7871 -0.2906 -0.5440
vn 0.7878 -0.4026 -0.4661
vn 0.7960 -0.3898 -0.4631
vn 0.7943 -0.4023 -0.4552
vn 0.8604 -0.2866 -0.4214
vn 0.8604 -0.2866 -0.4214
vn 0.8305 -0.2712 -0.4865
vn 0.7960 -0.3898 -0.4631
vn 0.7871 -0.2906 -0.5440
vn 0.8305 -0.2712 -0.4865
vn 0.8598 -0.0753 -0.5050
vn 0.8598 -0.0753 -0.5050
vn 0.7729 -0.0968 -0.6271
vn 0.7871 -0.2906 -0.5440
vn 0.8305 -0.2712 -0.4865
vn 0.8604 -0.2866 -0.4214
vn 0.9241 -0.1010 -0.3686
vn 0.9241 -0.1010 -0.3686
vn 0.8598 -0.0753 -0.5050
vn 0.8305 -0.2712 -0.4865
vn 0.7553 -0.3092 -0.5779
vn 0.7820 -0.4161 -0.4640
vn 0.7878 -0.4026 -0.4661
vn 0.7878 -0.4026 -0.4661
vn 0.7871 -0.2906 -0.5440
vn 0.7553 -0.3092 -0.5779
vn 0.7493 0.0429 -0.6609
vn 0.7729 -0.0968 -0.6271
vn 0.8598 -0.0753 -0.5050
vn 0.8598 -0.0753 -0.5050
vn 0.8617 0.0557 -0.5043
vn 0.7493 0.0429 -0.6609
vn 0.8617 0.0557 -0.5043
vn 0.8598 -0.0753 -0.5050
vn 0.9241 -0.1010 -0.3686
vn 0.9241 -0.1010 -0.3686
vn 0.9448 0.0267 -0.3265
vn 0.8617 0.0557 -0.5043
vn 0.9241 -0.1010 -0.3686
vn 0.9509 -0.1282 -0.2818
vn 0.9775 -0.0032 -0.2108
vn 0.9775 -0.0032 -0.2108
vn 0.9448 0.0267 -0.3265
vn 0.9241 -0.1010 -0.3686
vn 0.6684 0.0231 -0.7434
vn 0.7115 -0.1214 -0.6922
vn 0.7729 -0.0968 -0.6271
vn 0.7729 -0.0968 -0.6271
vn 0.7493 0.0429 -0.6609
vn 0.6684 0.0231 -0.7434
vn 0.7743 -0.5074 -0.3781
vn 0.7878 -0.4026 -0.4661
vn 0.7820 -0.4161 -0.4640
vn 0.7820 -0.4161 -0.4640
vn 0.7872 -0.5170 -0.3362
vn 0.7743 -0.5074 -0.3781
vn 0.6285 -0.5610 -0.5387
vn 0.6837 -0.5162 -0.5158
vn 0.7136 -0.5067 -0.4837
vn 0.7136 -0.5067 -0.4837
vn 0.6698 -0.5546 -0.4937
vn 0.6285 -0.5610 -0.5387
# 240 vertex normals

g separat_3
f 1//1 2//2 3//3 
f 3//4 4//5 1//6 
f 5//7 6//8 2//9 
f 2//10 1//11 5//12 
f 7//13 8//14 9//15 
f 9//16 10//17 7//18 
f 15//19 14//20 13//21 
f 13//22 16//23 15//24 
f 17//25 15//26 16//27 
f 16//28 18//29 17//30 
f 20//31 21//32 22//33 
f 22//34 23//35 20//36 
f 10//37 9//38 21//39 
f 21//40 20//41 10//42 
f 23//43 22//44 25//45 
f 25//46 12//47 23//48 
f 28//49 29//50 15//51 
f 15//52 17//53 28//54 
f 30//55 28//56 17//57 
f 17//58 4//59 30//60 
f 4//61 17//62 18//63 
f 18//64 1//65 4//66 
f 29//67 11//68 14//69 
f 14//70 15//71 29//72 
f 24//73 5//74 1//75 
f 1//76 18//77 24//78 
f 27//79 24//80 18//81 
f 18//82 16//83 27//84 
f 19//85 27//86 16//87 
f 16//88 13//89 19//90 
f 4//91 3//92 26//93 
f 26//94 30//95 4//96 
f 23//97 29//98 28//99 
f 28//100 20//101 23//102 
f 20//103 28//104 30//105 
f 30//106 10//107 20//108 
f 12//109 11//110 29//111 
f 29//112 23//113 12//114 
f 30//115 26//116 7//117 
f 7//118 10//119 30//120 
f 41//121 42//122 43//123 
f 43//124 44//125 41//126 
f 45//127 46//128 47//129 
f 47//130 48//131 45//132 
f 45//133 48//134 42//135 
f 42//136 41//137 45//138 
f 49//139 50//140 51//141 
f 51//142 52//143 49//144 
f 50//145 48//146 47//147 
f 47//148 51//149 50//150 
f 33//151 44//152 53//153 
f 53//154 32//155 33//156 
f 54//157 56//158 57//159 
f 57//160 58//161 54//162 
f 41//163 34//164 35//165 
f 35//166 45//167 41//168 
f 44//169 33//170 34//171 
f 34//172 41//173 44//174 
f 43//175 42//176 59//177 
f 59//178 56//179 43//180 
f 42//181 48//182 50//183 
f 50//184 59//185 42//186 
f 56//187 59//188 60//189 
f 60//190 57//191 56//192 
f 59//193 50//194 49//195 
f 49//196 60//197 59//198 
f 54//199 55//200 43//201 
f 43//202 56//203 54//204 
f 39//205 57//206 60//207 
f 60//208 36//209 39//210 
f 36//211 60//212 49//213 
f 49//214 37//215 36//216 
f 49//217 52//218 38//219 
f 38//220 37//221 49//222 
f 40//223 58//224 57//225 
f 57//226 39//227 40//228 
f 44//229 43//230 55//231 
f 55//232 53//233 44//234 
f 31//235 46//236 45//237 
f 45//238 35//239 31//240 
# 80 faces

