# 3ds Max Wavefront OBJ Exporter v0.97b - (c)2007 guruware
# File Created: 26.12.2023 22:18:30

#
# object SofaCushion3_ConvexMesh
#

v  0.7481 0.9959 0.3580
v  0.5896 0.5644 0.4247
v  0.3380 0.9465 0.2507
v  0.4098 0.6791 0.4172
v  0.4554 0.7174 0.2226
v  0.6413 0.7853 0.4548
v  0.5145 0.9569 0.2475
v  0.3002 0.5423 0.3379
v  0.6849 0.6416 0.3564
v  0.2443 0.8429 0.2629
v  0.7306 0.8442 0.3394
v  0.7512 0.5707 0.5209
v  0.2999 0.7271 0.2508
v  0.4128 0.8645 0.3438
v  0.5058 0.5584 0.3979
v  0.5674 0.8754 0.3889
v  0.3615 0.8968 0.1868
v  0.5950 0.9669 0.2755
v  0.6213 0.8172 0.2420
v  0.2717 0.9733 0.2151
v  0.2439 0.6439 0.3341
v  0.7373 0.7655 0.4364
v  0.4508 0.6253 0.2618
v  0.6768 0.5826 0.4942
# 24 vertices

vn 0.4270 -0.3439 -0.8363
vn 0.3900 -0.5423 -0.7442
vn 0.1560 -0.5469 -0.8226
vn -0.2222 0.8055 0.5494
vn -0.1263 0.8161 0.5639
vn -0.2137 0.5395 0.8144
vn 0.2142 -0.8685 -0.4470
vn 0.0023 -0.8080 -0.5892
vn -0.1380 -0.4971 -0.8567
vn -0.2222 0.8055 0.5494
vn -0.2137 0.5395 0.8144
vn -0.3098 0.5223 0.7945
vn 0.2602 0.2772 -0.9249
vn 0.1418 -0.1545 -0.9778
vn -0.1664 -0.1880 -0.9680
vn -0.9908 -0.1207 -0.0617
vn -0.9973 -0.0044 -0.0737
vn -0.5376 -0.2850 -0.7936
vn 0.9250 0.1133 0.3627
vn 0.8836 -0.2445 -0.3993
vn 0.9020 -0.1440 -0.4071
vn -0.1825 0.1741 0.9677
vn -0.2252 0.1554 0.9618
vn -0.2330 -0.3996 0.8866
vn 0.4202 -0.1388 -0.8968
vn 0.1418 -0.1545 -0.9778
vn 0.2602 0.2772 -0.9249
vn -0.3098 0.5223 0.7945
vn -0.2776 0.7416 0.6107
vn -0.2911 0.7851 0.5467
vn -0.3354 0.3545 0.8728
vn -0.5228 0.3829 0.7616
vn -0.6118 0.1627 0.7741
vn -0.1458 -0.2799 0.9489
vn 0.1029 -0.9442 0.3130
vn 0.0050 -0.9627 0.2706
vn 0.2143 0.2861 0.9339
vn -0.1825 0.1741 0.9677
vn -0.3187 -0.4209 0.8493
vn 0.2142 -0.8685 -0.4470
vn 0.1560 -0.5469 -0.8226
vn 0.3900 -0.5423 -0.7442
vn 0.0530 0.9052 -0.4217
vn 0.2602 0.2772 -0.9249
vn -0.0693 0.1372 -0.9881
vn -0.5228 0.3829 0.7616
vn -0.3354 0.3545 0.8728
vn -0.2641 0.5213 0.8115
vn 0.5212 0.1786 -0.8345
vn 0.7797 0.0246 -0.6257
vn 0.9020 -0.1440 -0.4071
vn -0.2776 0.7416 0.6107
vn -0.3098 0.5223 0.7945
vn 0.1995 0.3866 0.9004
vn 0.9250 0.1133 0.3627
vn 0.9366 0.1797 0.3007
vn 0.8836 -0.2445 -0.3993
vn 0.8836 -0.2445 -0.3993
vn 0.6892 -0.6174 -0.3793
vn 0.4249 -0.7843 -0.4519
vn -0.1380 -0.4971 -0.8567
vn 0.1560 -0.5469 -0.8226
vn 0.2142 -0.8685 -0.4470
vn -0.1887 -0.3391 -0.9216
vn -0.1664 -0.1880 -0.9680
vn 0.1418 -0.1545 -0.9778
vn -0.6118 0.1627 0.7741
vn -0.2252 0.1554 0.9618
vn -0.3354 0.3545 0.8728
vn -0.2872 0.3575 0.8886
vn -0.3354 0.3545 0.8728
vn -0.2252 0.1554 0.9618
vn 0.0050 -0.9627 0.2706
vn -0.2330 -0.3996 0.8866
vn -0.1458 -0.2799 0.9489
vn 0.3900 -0.5423 -0.7442
vn 0.2527 -0.8607 -0.4420
vn 0.2142 -0.8685 -0.4470
vn 0.3114 0.3320 0.8904
vn 0.1995 0.3866 0.9004
vn -0.3098 0.5223 0.7945
vn -0.3103 0.3556 0.8816
vn -0.2872 0.3575 0.8886
vn -0.2252 0.1554 0.9618
vn -0.5061 -0.2271 -0.8320
vn -0.5376 -0.2850 -0.7936
vn -0.9973 -0.0044 -0.0737
vn -0.9973 -0.0044 -0.0737
vn -0.9937 0.1102 -0.0187
vn -0.3472 -0.0034 -0.9378
vn 0.2602 0.2772 -0.9249
vn 0.3326 0.2731 -0.9027
vn 0.4202 -0.1388 -0.8968
vn -0.3098 0.5223 0.7945
vn -0.2911 0.7851 0.5467
vn -0.2222 0.8055 0.5494
vn 0.6590 -0.1492 -0.7372
vn 0.4202 -0.1388 -0.8968
vn 0.3326 0.2731 -0.9027
vn 0.6590 -0.1492 -0.7372
vn 0.6815 -0.2882 -0.6727
vn 0.4270 -0.3439 -0.8363
vn -0.3472 -0.0034 -0.9378
vn -0.1071 0.9161 -0.3863
vn 0.0530 0.9052 -0.4217
vn -0.0638 0.7948 0.6036
vn -0.2648 0.6416 0.7199
vn -0.5228 0.3829 0.7616
vn -0.6118 0.1627 0.7741
vn -0.4189 -0.1392 0.8973
vn -0.1458 -0.2799 0.9489
vn -0.9908 -0.1207 -0.0617
vn -0.5376 -0.2850 -0.7936
vn -0.3082 -0.6861 -0.6590
vn -0.1825 0.1741 0.9677
vn 0.2143 0.2861 0.9339
vn 0.3114 0.3320 0.8904
vn -0.3098 0.5223 0.7945
vn -0.1315 0.3632 0.9224
vn 0.3114 0.3320 0.8904
vn -0.1887 -0.3391 -0.9216
vn 0.1366 -0.3553 -0.9247
vn 0.1560 -0.5469 -0.8226
vn 0.1560 -0.5469 -0.8226
vn 0.1366 -0.3553 -0.9247
vn 0.4270 -0.3439 -0.8363
vn 0.6174 -0.4597 -0.6384
vn 0.4249 -0.7843 -0.4519
vn 0.2527 -0.8607 -0.4420
vn -0.2330 -0.3996 0.8866
vn -0.3187 -0.4209 0.8493
vn -0.1825 0.1741 0.9677
# 132 vertex normals

g SofaCushion3_ConvexMesh
f 19//1 9//2 23//3 
f 7//4 3//5 14//6 
f 15//7 8//8 13//9 
f 7//10 14//11 16//12 
f 7//13 5//14 17//15 
f 21//16 10//17 13//18 
f 22//19 9//20 11//21 
f 6//22 4//23 2//24 
f 19//25 5//26 7//27 
f 16//28 1//29 18//30 
f 14//31 10//32 21//33 
f 4//34 8//35 15//36 
f 12//37 6//38 24//39 
f 15//40 23//41 9//42 
f 3//43 7//44 17//45 
f 10//46 14//47 3//48 
f 18//49 1//50 11//51 
f 1//52 16//53 11//54 
f 22//55 12//56 9//57 
f 9//58 12//59 24//60 
f 13//61 23//62 15//63 
f 13//64 17//65 5//66 
f 21//67 4//68 14//69 
f 16//70 14//71 4//72 
f 15//73 2//74 4//75 
f 9//76 2//77 15//78 
f 22//79 11//80 16//81 
f 6//82 16//83 4//84 
f 17//85 13//86 10//87 
f 10//88 20//89 17//90 
f 7//91 18//92 19//93 
f 16//94 18//95 7//96 
f 11//97 19//98 18//99 
f 11//100 9//101 19//102 
f 17//103 20//104 3//105 
f 3//106 20//107 10//108 
f 21//109 8//110 4//111 
f 21//112 13//113 8//114 
f 6//115 12//116 22//117 
f 16//118 6//119 22//120 
f 13//121 5//122 23//123 
f 23//124 5//125 19//126 
f 9//127 24//128 2//129 
f 2//130 24//131 6//132 
# 44 faces

